<svg width="759" height="307" viewBox="0 0 759 307" fill="none" xmlns="http://www.w3.org/2000/svg">
<rect x="20.5" y="105" width="179" height="117" rx="3.2988" fill="#F4D4DA" fill-opacity="0.4"/>
<rect x="84" y="122.097" width="52" height="7" fill="#1C2847" fill-opacity="0.4"/>
<rect x="91" y="131.097" width="38" height="7.34571" fill="#1C2847" fill-opacity="0.4"/>
<rect x="90" y="143.001" width="40" height="3.35326" fill="#1C2847" fill-opacity="0.4"/>
<rect x="94" y="147.354" width="32" height="3.35326" fill="#1C2847" fill-opacity="0.4"/>
<rect x="97.4321" y="154.708" width="10.6686" height="4.04346" fill="#1C2847" fill-opacity="0.4"/>
<rect x="111.899" y="154.708" width="10.6686" height="4.04346" fill="#1C2847" fill-opacity="0.4"/>
<rect x="49.9143" y="166.931" width="120.171" height="33.9945" rx="3.40892" fill="#F7E9AB"/>
<path d="M64.3906 179.42C65.4297 179.42 66.2246 179.65 66.7754 180.111C67.3262 180.568 67.6016 181.234 67.6016 182.109C67.6016 182.957 67.3223 183.617 66.7637 184.09C66.2051 184.559 65.4258 184.793 64.4258 184.793H63.2832V187.928H61.4727V179.42H64.3906ZM64.3145 183.451C64.8105 183.451 65.1797 183.342 65.4219 183.123C65.668 182.9 65.791 182.562 65.791 182.109C65.791 181.652 65.6699 181.316 65.4277 181.102C65.1895 180.883 64.8184 180.773 64.3145 180.773H63.2832V183.451H64.3145ZM70.3438 182.514C70.7383 181.865 71.291 181.541 72.002 181.541C72.1543 181.541 72.2832 181.551 72.3887 181.57C72.498 181.586 72.6367 181.617 72.8047 181.664L72.5996 183.234C72.2637 183.113 71.9668 183.055 71.709 183.059C71.4277 183.059 71.1895 183.109 70.9941 183.211C70.7988 183.309 70.6348 183.465 70.502 183.68V187.928H68.6973V181.641H70.127L70.3438 182.514ZM76.332 181.494C77.3672 181.494 78.1602 181.777 78.7109 182.344C79.2617 182.906 79.5371 183.715 79.5371 184.77C79.5371 185.824 79.2617 186.637 78.7109 187.207C78.1602 187.777 77.3672 188.063 76.332 188.063C75.3086 188.063 74.5195 187.779 73.9648 187.213C73.4102 186.643 73.1328 185.828 73.1328 184.77C73.1328 183.715 73.4082 182.906 73.959 182.344C74.5098 181.777 75.3008 181.494 76.332 181.494ZM76.332 182.842C75.4063 182.838 74.9434 183.48 74.9434 184.77C74.9434 186.059 75.4063 186.703 76.332 186.703C77.2617 186.703 77.7266 186.059 77.7266 184.77C77.7266 183.48 77.2617 182.838 76.332 182.842ZM79.918 181.641H81.6934L82.6191 184.4C82.7402 184.775 82.8887 185.322 83.0645 186.041L83.1582 186.404C83.2207 186.166 83.2656 185.986 83.293 185.865C83.4453 185.248 83.5762 184.756 83.6855 184.389L84.6113 181.641H86.3633L84.2012 187.928H82.0801L79.918 181.641ZM88.502 185.121C88.5957 186.191 89.1465 186.727 90.1543 186.727C90.4668 186.727 90.7813 186.691 91.0977 186.621C91.4141 186.547 91.7637 186.43 92.1465 186.27L92.5801 187.389C91.627 187.83 90.7461 188.049 89.9375 188.045C88.9453 188.045 88.166 187.756 87.5996 187.178C87.0332 186.6 86.75 185.797 86.75 184.77C86.75 183.746 87.0273 182.949 87.582 182.379C88.1367 181.805 88.9141 181.518 89.9141 181.518C91.793 181.518 92.7324 182.582 92.7324 184.711V185.121H88.502ZM91.0801 184.078C91.0293 183.203 90.6445 182.766 89.9258 182.766C89.5273 182.766 89.2129 182.875 88.9824 183.094C88.7559 183.309 88.6074 183.637 88.5371 184.078H91.0801ZM101.064 185.285C101.002 185.023 100.953 184.801 100.918 184.617C100.883 184.434 100.852 184.281 100.824 184.16L100.719 183.586C100.695 183.664 100.639 183.92 100.549 184.354C100.525 184.475 100.463 184.785 100.361 185.285L99.6758 187.928H97.5254L95.832 181.641H97.5723L98.2344 184.436C98.3047 184.725 98.4121 185.197 98.5566 185.854C98.5723 185.943 98.5918 186.043 98.6152 186.152C98.6426 186.258 98.668 186.365 98.6914 186.475C98.9375 185.514 99.1133 184.834 99.2188 184.436L99.9981 181.641H101.428L102.195 184.436C102.266 184.682 102.328 184.912 102.383 185.127C102.441 185.338 102.49 185.523 102.529 185.684C102.689 186.285 102.758 186.549 102.734 186.475C102.832 186.076 102.984 185.393 103.191 184.424L103.854 181.641H105.594L103.889 187.928H101.738L101.064 185.285ZM106.59 179.109H108.389V180.75H106.59V179.109ZM106.59 181.711H108.389V187.928H106.59V181.711ZM114.037 187.687C113.494 187.91 112.975 188.021 112.479 188.021C111.096 188.021 110.404 187.361 110.404 186.041V182.9H109.367V181.641H110.521L110.867 179.842H112.191V181.641H113.908V182.9H112.191V185.789C112.191 186.109 112.25 186.338 112.367 186.475C112.488 186.611 112.693 186.68 112.982 186.68C113.229 186.68 113.492 186.631 113.773 186.533L114.037 187.687ZM116.932 182.408C117.193 182.127 117.5 181.912 117.852 181.764C118.203 181.615 118.588 181.541 119.006 181.541C119.662 181.541 120.168 181.732 120.523 182.115C120.879 182.494 121.057 183.039 121.057 183.75V187.928H119.258V183.85C119.258 183.482 119.186 183.217 119.041 183.053C118.896 182.889 118.664 182.807 118.344 182.807C118.055 182.807 117.785 182.873 117.535 183.006C117.285 183.135 117.084 183.311 116.932 183.533V187.928H115.127V178.881H116.932V182.408ZM128.158 179.314C128.861 179.311 129.652 179.465 130.531 179.777L130.162 181.184C129.346 180.895 128.682 180.75 128.17 180.75C127.756 180.75 127.43 180.832 127.191 180.996C126.953 181.16 126.834 181.383 126.834 181.664C126.834 181.969 126.943 182.211 127.162 182.391C127.385 182.57 127.789 182.736 128.375 182.889C129.238 183.111 129.852 183.42 130.215 183.814C130.578 184.205 130.76 184.744 130.76 185.432C130.76 186.264 130.479 186.902 129.916 187.348C129.357 187.789 128.559 188.01 127.52 188.01C126.672 188.01 125.764 187.818 124.795 187.436L125.229 186.07C125.764 186.262 126.201 186.396 126.541 186.475C126.881 186.549 127.203 186.586 127.508 186.586C127.949 186.586 128.289 186.492 128.527 186.305C128.77 186.113 128.891 185.85 128.891 185.514C128.891 185.299 128.84 185.119 128.738 184.975C128.637 184.83 128.465 184.701 128.223 184.588C127.98 184.471 127.631 184.355 127.174 184.242C126.412 184.059 125.855 183.773 125.504 183.387C125.152 183 124.977 182.49 124.977 181.857C124.977 181.049 125.254 180.424 125.809 179.982C126.367 179.537 127.15 179.314 128.158 179.314ZM132.008 179.109H133.807V180.75H132.008V179.109ZM132.008 181.711H133.807V187.928H132.008V181.711ZM137.75 181.518C138.344 181.518 139.037 181.654 139.83 181.928L139.455 183.105C139.041 182.969 138.711 182.875 138.465 182.824C138.223 182.77 138.006 182.742 137.814 182.742C137.518 182.742 137.283 182.799 137.111 182.912C136.939 183.025 136.854 183.178 136.854 183.369C136.854 183.553 136.936 183.697 137.1 183.803C137.264 183.904 137.51 184.004 137.838 184.102C138.295 184.23 138.656 184.352 138.922 184.465C139.191 184.574 139.43 184.76 139.637 185.021C139.844 185.279 139.947 185.633 139.947 186.082C139.947 186.699 139.717 187.182 139.256 187.529C138.799 187.873 138.17 188.045 137.369 188.045C136.529 188.045 135.725 187.877 134.955 187.541L135.389 186.357C135.846 186.525 136.215 186.645 136.496 186.715C136.781 186.781 137.035 186.814 137.258 186.814C137.57 186.814 137.807 186.756 137.967 186.639C138.127 186.521 138.207 186.355 138.207 186.141C138.207 185.926 138.115 185.768 137.932 185.666C137.748 185.564 137.451 185.455 137.041 185.338C136.658 185.225 136.338 185.109 136.08 184.992C135.826 184.871 135.607 184.682 135.424 184.424C135.24 184.166 135.148 183.826 135.148 183.404C135.148 182.811 135.377 182.348 135.834 182.016C136.295 181.684 136.934 181.518 137.75 181.518ZM142.871 182.514C143.395 181.865 144.092 181.541 144.963 181.541C145.412 181.541 145.797 181.635 146.117 181.822C146.441 182.006 146.684 182.273 146.844 182.625C147.141 182.258 147.469 181.986 147.828 181.811C148.188 181.631 148.592 181.541 149.041 181.541C149.713 181.541 150.23 181.734 150.594 182.121C150.957 182.504 151.139 183.047 151.139 183.75V187.928H149.34V183.85C149.34 183.482 149.268 183.217 149.123 183.053C148.979 182.889 148.746 182.807 148.426 182.807C148.137 182.807 147.873 182.871 147.635 183C147.396 183.125 147.197 183.303 147.037 183.533C147.037 183.549 147.041 183.586 147.049 183.645C147.057 183.699 147.061 183.764 147.061 183.838V187.928H145.262V183.85C145.262 183.482 145.189 183.217 145.045 183.053C144.9 182.889 144.668 182.807 144.348 182.807C144.066 182.807 143.805 182.873 143.563 183.006C143.32 183.135 143.127 183.311 142.982 183.533V187.928H141.184V181.641H142.684L142.871 182.514ZM155.469 181.494C156.504 181.494 157.297 181.777 157.848 182.344C158.398 182.906 158.674 183.715 158.674 184.77C158.674 185.824 158.398 186.637 157.848 187.207C157.297 187.777 156.504 188.063 155.469 188.063C154.445 188.063 153.656 187.779 153.102 187.213C152.547 186.643 152.27 185.828 152.27 184.77C152.27 183.715 152.545 182.906 153.096 182.344C153.646 181.777 154.438 181.494 155.469 181.494ZM155.469 182.842C154.543 182.838 154.08 183.48 154.08 184.77C154.08 186.059 154.543 186.703 155.469 186.703C156.398 186.703 156.863 186.059 156.863 184.77C156.863 183.48 156.398 182.838 155.469 182.842Z" fill="#1C2847"/>
<rect x="49.9143" y="166.931" width="120.171" height="33.9945" rx="3.40892" stroke="#1C2847" stroke-width="0.358834"/>
<rect x="20.5" y="105" width="179" height="117" rx="3.2988" stroke="#3F4973"/>
<path d="M250.354 163.854C250.549 163.658 250.549 163.342 250.354 163.146L247.172 159.964C246.976 159.769 246.66 159.769 246.464 159.964C246.269 160.16 246.269 160.476 246.464 160.672L249.293 163.5L246.464 166.328C246.269 166.524 246.269 166.84 246.464 167.036C246.66 167.231 246.976 167.231 247.172 167.036L250.354 163.854ZM210 164L250 164L250 163L210 163L210 164Z" fill="#2A3557"/>
<rect x="260" y="80" width="239" height="167" rx="5" fill="#F7E9AB"/>
<path d="M284.516 103.063C284.516 102.929 284.477 102.808 284.399 102.7C284.321 102.592 284.176 102.493 283.965 102.402C283.758 102.307 283.457 102.221 283.064 102.143C282.71 102.065 282.38 101.968 282.073 101.851C281.771 101.73 281.507 101.586 281.283 101.417C281.062 101.249 280.89 101.05 280.764 100.821C280.639 100.588 280.577 100.322 280.577 100.024C280.577 99.7308 280.639 99.4544 280.764 99.1952C280.894 98.9361 281.078 98.7072 281.315 98.5085C281.557 98.3055 281.851 98.1479 282.196 98.0356C282.546 97.919 282.939 97.8606 283.375 97.8606C283.984 97.8606 284.507 97.9578 284.943 98.1522C285.384 98.3465 285.721 98.6143 285.954 98.9555C286.191 99.2924 286.31 99.6768 286.31 100.109H284.444C284.444 99.9273 284.405 99.7653 284.328 99.6228C284.254 99.476 284.138 99.3615 283.978 99.2794C283.822 99.1931 283.619 99.1499 283.369 99.1499C283.162 99.1499 282.982 99.1866 282.831 99.26C282.68 99.3291 282.563 99.4241 282.481 99.5451C282.404 99.6617 282.365 99.7913 282.365 99.9338C282.365 100.042 282.386 100.139 282.429 100.225C282.477 100.307 282.553 100.383 282.656 100.452C282.76 100.521 282.894 100.586 283.058 100.646C283.226 100.703 283.434 100.754 283.68 100.802C284.185 100.906 284.636 101.042 285.034 101.21C285.431 101.374 285.746 101.599 285.98 101.884C286.213 102.165 286.33 102.534 286.33 102.992C286.33 103.303 286.26 103.588 286.122 103.847C285.984 104.106 285.785 104.333 285.526 104.527C285.267 104.717 284.956 104.866 284.593 104.974C284.235 105.078 283.831 105.13 283.382 105.13C282.73 105.13 282.177 105.013 281.723 104.78C281.274 104.547 280.933 104.251 280.7 103.892C280.471 103.529 280.356 103.158 280.356 102.778H282.125C282.134 103.033 282.198 103.238 282.319 103.393C282.445 103.549 282.602 103.661 282.792 103.73C282.987 103.799 283.196 103.834 283.421 103.834C283.663 103.834 283.863 103.801 284.023 103.737C284.183 103.668 284.304 103.577 284.386 103.465C284.472 103.348 284.516 103.214 284.516 103.063ZM289.51 97.9902V105H287.638V97.9902H289.51ZM287.522 96.1633C287.522 95.8912 287.617 95.6666 287.807 95.4895C287.997 95.3124 288.252 95.2239 288.571 95.2239C288.886 95.2239 289.139 95.3124 289.329 95.4895C289.523 95.6666 289.621 95.8912 289.621 96.1633C289.621 96.4354 289.523 96.66 289.329 96.837C289.139 97.0141 288.886 97.1027 288.571 97.1027C288.252 97.1027 287.997 97.0141 287.807 96.837C287.617 96.66 287.522 96.4354 287.522 96.1633ZM294.842 103.063C294.842 102.929 294.803 102.808 294.726 102.7C294.648 102.592 294.503 102.493 294.292 102.402C294.084 102.307 293.784 102.221 293.391 102.143C293.037 102.065 292.707 101.968 292.4 101.851C292.098 101.73 291.834 101.586 291.61 101.417C291.389 101.249 291.217 101.05 291.091 100.821C290.966 100.588 290.903 100.322 290.903 100.024C290.903 99.7308 290.966 99.4544 291.091 99.1952C291.221 98.9361 291.404 98.7072 291.642 98.5085C291.884 98.3055 292.177 98.1479 292.523 98.0356C292.873 97.919 293.266 97.8606 293.702 97.8606C294.311 97.8606 294.834 97.9578 295.27 98.1522C295.71 98.3465 296.047 98.6143 296.281 98.9555C296.518 99.2924 296.637 99.6768 296.637 100.109H294.771C294.771 99.9273 294.732 99.7653 294.654 99.6228C294.581 99.476 294.464 99.3615 294.305 99.2794C294.149 99.1931 293.946 99.1499 293.696 99.1499C293.488 99.1499 293.309 99.1866 293.158 99.26C293.007 99.3291 292.89 99.4241 292.808 99.5451C292.73 99.6617 292.691 99.7913 292.691 99.9338C292.691 100.042 292.713 100.139 292.756 100.225C292.804 100.307 292.879 100.383 292.983 100.452C293.087 100.521 293.221 100.586 293.385 100.646C293.553 100.703 293.76 100.754 294.007 100.802C294.512 100.906 294.963 101.042 295.361 101.21C295.758 101.374 296.073 101.599 296.306 101.884C296.54 102.165 296.656 102.534 296.656 102.992C296.656 103.303 296.587 103.588 296.449 103.847C296.311 104.106 296.112 104.333 295.853 104.527C295.594 104.717 295.283 104.866 294.92 104.974C294.562 105.078 294.158 105.13 293.709 105.13C293.056 105.13 292.504 105.013 292.05 104.78C291.601 104.547 291.26 104.251 291.026 103.892C290.798 103.529 290.683 103.158 290.683 102.778H292.452C292.46 103.033 292.525 103.238 292.646 103.393C292.771 103.549 292.929 103.661 293.119 103.73C293.313 103.799 293.523 103.834 293.747 103.834C293.989 103.834 294.19 103.801 294.35 103.737C294.51 103.668 294.631 103.577 294.713 103.465C294.799 103.348 294.842 103.214 294.842 103.063ZM299.734 99.4414V105H297.861V97.9902H299.617L299.734 99.4414ZM299.474 101.249H298.956C298.956 100.761 299.015 100.312 299.131 99.9014C299.252 99.4868 299.427 99.1283 299.656 98.826C299.889 98.5193 300.176 98.2818 300.518 98.1133C300.859 97.9449 301.254 97.8606 301.703 97.8606C302.014 97.8606 302.299 97.9082 302.558 98.0032C302.817 98.0939 303.04 98.2386 303.226 98.4372C303.416 98.6316 303.562 98.8864 303.666 99.2017C303.77 99.5127 303.822 99.8863 303.822 100.322V105H301.956V100.53C301.956 100.21 301.913 99.964 301.826 99.7913C301.74 99.6185 301.617 99.4976 301.457 99.4285C301.301 99.3594 301.114 99.3248 300.893 99.3248C300.651 99.3248 300.44 99.3745 300.258 99.4738C300.081 99.5731 299.934 99.7114 299.818 99.8884C299.701 100.061 299.615 100.264 299.559 100.497C299.503 100.731 299.474 100.981 299.474 101.249ZM303.647 101.035L302.979 101.119C302.979 100.662 303.036 100.236 303.148 99.8431C303.264 99.4501 303.435 99.1045 303.66 98.8065C303.889 98.5085 304.171 98.2774 304.508 98.1133C304.845 97.9449 305.234 97.8606 305.674 97.8606C306.011 97.8606 306.318 97.9103 306.594 98.0097C306.871 98.1047 307.106 98.258 307.301 98.4696C307.499 98.6769 307.65 98.949 307.754 99.2859C307.862 99.6228 307.916 100.035 307.916 100.523V105H306.044V100.523C306.044 100.199 306.001 99.9532 305.914 99.7848C305.832 99.612 305.711 99.4932 305.551 99.4285C305.396 99.3594 305.21 99.3248 304.994 99.3248C304.77 99.3248 304.573 99.3701 304.405 99.4608C304.236 99.5472 304.096 99.6682 303.984 99.8236C303.871 99.9791 303.787 100.161 303.731 100.368C303.675 100.571 303.647 100.793 303.647 101.035ZM309.063 101.566V101.43C309.063 100.916 309.136 100.443 309.283 100.012C309.43 99.5753 309.644 99.1974 309.924 98.8778C310.205 98.5582 310.551 98.3098 310.961 98.1327C311.371 97.9513 311.842 97.8606 312.373 97.8606C312.905 97.8606 313.377 97.9513 313.792 98.1327C314.207 98.3098 314.554 98.5582 314.835 98.8778C315.12 99.1974 315.336 99.5753 315.483 100.012C315.63 100.443 315.703 100.916 315.703 101.43V101.566C315.703 102.076 315.63 102.549 315.483 102.985C315.336 103.417 315.12 103.795 314.835 104.119C314.554 104.439 314.209 104.687 313.799 104.864C313.388 105.041 312.917 105.13 312.386 105.13C311.855 105.13 311.382 105.041 310.967 104.864C310.557 104.687 310.209 104.439 309.924 104.119C309.644 103.795 309.43 103.417 309.283 102.985C309.136 102.549 309.063 102.076 309.063 101.566ZM310.929 101.43V101.566C310.929 101.86 310.954 102.134 311.006 102.389C311.058 102.644 311.14 102.869 311.252 103.063C311.369 103.253 311.52 103.402 311.706 103.51C311.892 103.618 312.118 103.672 312.386 103.672C312.645 103.672 312.868 103.618 313.054 103.51C313.239 103.402 313.388 103.253 313.501 103.063C313.613 102.869 313.695 102.644 313.747 102.389C313.803 102.134 313.831 101.86 313.831 101.566V101.43C313.831 101.145 313.803 100.877 313.747 100.627C313.695 100.372 313.611 100.148 313.494 99.9532C313.382 99.7545 313.233 99.5991 313.047 99.4868C312.861 99.3745 312.637 99.3183 312.373 99.3183C312.11 99.3183 311.885 99.3745 311.699 99.4868C311.518 99.5991 311.369 99.7545 311.252 99.9532C311.14 100.148 311.058 100.372 311.006 100.627C310.954 100.877 310.929 101.145 310.929 101.43ZM316.941 104.099C316.941 103.823 317.036 103.592 317.226 103.406C317.42 103.221 317.677 103.128 317.997 103.128C318.316 103.128 318.571 103.221 318.761 103.406C318.955 103.592 319.053 103.823 319.053 104.099C319.053 104.376 318.955 104.607 318.761 104.793C318.571 104.978 318.316 105.071 317.997 105.071C317.677 105.071 317.42 104.978 317.226 104.793C317.036 104.607 316.941 104.376 316.941 104.099ZM322.668 97.9902V105H320.795V97.9902H322.668ZM320.679 96.1633C320.679 95.8912 320.774 95.6666 320.964 95.4895C321.154 95.3124 321.409 95.2239 321.728 95.2239C322.044 95.2239 322.296 95.3124 322.486 95.4895C322.681 95.6666 322.778 95.8912 322.778 96.1633C322.778 96.4354 322.681 96.66 322.486 96.837C322.296 97.0141 322.044 97.1027 321.728 97.1027C321.409 97.1027 321.154 97.0141 320.964 96.837C320.774 96.66 320.679 96.4354 320.679 96.1633ZM323.912 101.566V101.43C323.912 100.916 323.985 100.443 324.132 100.012C324.279 99.5753 324.492 99.1974 324.773 98.8778C325.054 98.5582 325.399 98.3098 325.81 98.1327C326.22 97.9513 326.691 97.8606 327.222 97.8606C327.753 97.8606 328.226 97.9513 328.641 98.1327C329.056 98.3098 329.403 98.5582 329.684 98.8778C329.969 99.1974 330.185 99.5753 330.332 100.012C330.479 100.443 330.552 100.916 330.552 101.43V101.566C330.552 102.076 330.479 102.549 330.332 102.985C330.185 103.417 329.969 103.795 329.684 104.119C329.403 104.439 329.058 104.687 328.647 104.864C328.237 105.041 327.766 105.13 327.235 105.13C326.704 105.13 326.231 105.041 325.816 104.864C325.406 104.687 325.058 104.439 324.773 104.119C324.492 103.795 324.279 103.417 324.132 102.985C323.985 102.549 323.912 102.076 323.912 101.566ZM325.777 101.43V101.566C325.777 101.86 325.803 102.134 325.855 102.389C325.907 102.644 325.989 102.869 326.101 103.063C326.218 103.253 326.369 103.402 326.555 103.51C326.741 103.618 326.967 103.672 327.235 103.672C327.494 103.672 327.717 103.618 327.902 103.51C328.088 103.402 328.237 103.253 328.349 103.063C328.462 102.869 328.544 102.644 328.596 102.389C328.652 102.134 328.68 101.86 328.68 101.566V101.43C328.68 101.145 328.652 100.877 328.596 100.627C328.544 100.372 328.459 100.148 328.343 99.9532C328.231 99.7545 328.082 99.5991 327.896 99.4868C327.71 99.3745 327.486 99.3183 327.222 99.3183C326.959 99.3183 326.734 99.3745 326.548 99.4868C326.367 99.5991 326.218 99.7545 326.101 99.9532C325.989 100.148 325.907 100.372 325.855 100.627C325.803 100.877 325.777 101.145 325.777 101.43Z" fill="#EE526E" fill-opacity="0.8"/>
<path d="M303.523 135.08C303.481 134.773 303.405 134.498 303.295 134.256C303.186 134.009 303.038 133.801 302.852 133.631C302.667 133.456 302.441 133.324 302.176 133.233C301.911 133.142 301.602 133.097 301.25 133.097C300.625 133.097 300.032 133.254 299.472 133.568C298.911 133.883 298.432 134.345 298.034 134.955C297.636 135.561 297.366 136.299 297.222 137.17C297.078 138.049 297.085 138.794 297.244 139.403C297.403 140.013 297.695 140.477 298.119 140.795C298.547 141.11 299.085 141.267 299.733 141.267C300.328 141.267 300.867 141.153 301.352 140.926C301.837 140.699 302.239 140.377 302.557 139.96C302.879 139.54 303.083 139.047 303.17 138.483L303.636 138.557H300.472L300.756 136.909H305.477L305.239 138.307C305.076 139.307 304.722 140.17 304.176 140.898C303.634 141.621 302.958 142.18 302.148 142.574C301.341 142.964 300.456 143.159 299.494 143.159C298.426 143.159 297.527 142.919 296.795 142.438C296.068 141.953 295.553 141.265 295.25 140.375C294.947 139.481 294.898 138.42 295.102 137.193C295.254 136.254 295.523 135.415 295.909 134.676C296.299 133.938 296.777 133.311 297.341 132.795C297.909 132.277 298.54 131.883 299.233 131.614C299.926 131.341 300.653 131.205 301.415 131.205C302.055 131.205 302.638 131.299 303.165 131.489C303.691 131.674 304.142 131.939 304.517 132.284C304.896 132.629 305.186 133.038 305.386 133.511C305.587 133.985 305.682 134.508 305.67 135.08H303.523ZM310.249 143.17C309.374 143.17 308.65 142.989 308.078 142.625C307.506 142.258 307.105 141.739 306.874 141.068C306.646 140.394 306.608 139.6 306.76 138.688C306.908 137.79 307.209 137.002 307.663 136.324C308.118 135.642 308.686 135.112 309.368 134.733C310.054 134.35 310.811 134.159 311.641 134.159C312.179 134.159 312.673 134.246 313.124 134.42C313.574 134.591 313.955 134.856 314.266 135.216C314.576 135.576 314.79 136.034 314.908 136.591C315.025 137.144 315.019 137.803 314.891 138.568L314.794 139.199H307.635L307.857 137.812H313.038C313.107 137.419 313.084 137.068 312.97 136.761C312.857 136.451 312.667 136.206 312.402 136.028C312.137 135.85 311.805 135.761 311.408 135.761C311.002 135.761 310.624 135.866 310.271 136.074C309.923 136.278 309.629 136.544 309.391 136.869C309.152 137.195 309 137.538 308.936 137.898L308.703 139.227C308.62 139.773 308.639 140.218 308.76 140.562C308.881 140.907 309.093 141.161 309.396 141.324C309.699 141.487 310.082 141.568 310.544 141.568C310.847 141.568 311.127 141.527 311.385 141.443C311.643 141.36 311.872 141.235 312.072 141.068C312.277 140.898 312.447 140.689 312.584 140.443L314.464 140.659C314.256 141.167 313.951 141.61 313.55 141.989C313.148 142.364 312.667 142.655 312.107 142.864C311.55 143.068 310.93 143.17 310.249 143.17ZM318.817 137.886L317.976 143H315.913L317.368 134.273H319.339L319.089 135.756H319.197C319.47 135.267 319.853 134.879 320.345 134.591C320.838 134.303 321.411 134.159 322.067 134.159C322.661 134.159 323.161 134.288 323.567 134.545C323.972 134.799 324.26 135.172 324.43 135.665C324.601 136.153 324.627 136.746 324.51 137.443L323.578 143H321.521L322.391 137.761C322.489 137.182 322.415 136.727 322.169 136.398C321.927 136.064 321.536 135.898 320.999 135.898C320.639 135.898 320.307 135.977 320.004 136.136C319.701 136.292 319.446 136.517 319.237 136.812C319.033 137.108 318.893 137.466 318.817 137.886ZM329.499 143.17C328.624 143.17 327.9 142.989 327.328 142.625C326.756 142.258 326.355 141.739 326.124 141.068C325.896 140.394 325.858 139.6 326.01 138.688C326.158 137.79 326.459 137.002 326.913 136.324C327.368 135.642 327.936 135.112 328.618 134.733C329.304 134.35 330.061 134.159 330.891 134.159C331.429 134.159 331.923 134.246 332.374 134.42C332.824 134.591 333.205 134.856 333.516 135.216C333.826 135.576 334.04 136.034 334.158 136.591C334.275 137.144 334.269 137.803 334.141 138.568L334.044 139.199H326.885L327.107 137.812H332.288C332.357 137.419 332.334 137.068 332.22 136.761C332.107 136.451 331.917 136.206 331.652 136.028C331.387 135.85 331.055 135.761 330.658 135.761C330.252 135.761 329.874 135.866 329.521 136.074C329.173 136.278 328.879 136.544 328.641 136.869C328.402 137.195 328.25 137.538 328.186 137.898L327.953 139.227C327.87 139.773 327.889 140.218 328.01 140.562C328.131 140.907 328.343 141.161 328.646 141.324C328.949 141.487 329.332 141.568 329.794 141.568C330.097 141.568 330.377 141.527 330.635 141.443C330.893 141.36 331.122 141.235 331.322 141.068C331.527 140.898 331.697 140.689 331.834 140.443L333.714 140.659C333.506 141.167 333.201 141.61 332.8 141.989C332.398 142.364 331.917 142.655 331.357 142.864C330.8 143.068 330.18 143.17 329.499 143.17ZM335.158 143L336.612 134.273H338.607L338.362 135.727H338.453C338.692 135.223 339.029 134.835 339.464 134.562C339.904 134.286 340.374 134.148 340.874 134.148C340.991 134.148 341.118 134.153 341.254 134.165C341.391 134.172 341.508 134.186 341.607 134.205L341.288 136.097C341.201 136.066 341.065 136.04 340.879 136.017C340.697 135.991 340.518 135.977 340.339 135.977C339.964 135.977 339.616 136.059 339.294 136.222C338.976 136.381 338.707 136.602 338.487 136.886C338.268 137.17 338.125 137.498 338.061 137.869L337.214 143H335.158ZM343.849 143.176C343.296 143.176 342.815 143.078 342.406 142.881C341.997 142.68 341.696 142.384 341.503 141.994C341.313 141.604 341.266 141.123 341.361 140.551C341.444 140.059 341.603 139.652 341.838 139.33C342.077 139.008 342.368 138.75 342.713 138.557C343.062 138.36 343.44 138.212 343.849 138.114C344.262 138.015 344.683 137.943 345.111 137.898C345.634 137.845 346.056 137.795 346.378 137.75C346.704 137.705 346.948 137.636 347.111 137.545C347.274 137.451 347.372 137.307 347.406 137.114V137.08C347.474 136.652 347.406 136.32 347.202 136.085C346.997 135.85 346.656 135.733 346.179 135.733C345.679 135.733 345.259 135.843 344.918 136.062C344.577 136.282 344.329 136.542 344.173 136.841L342.31 136.568C342.545 136.038 342.866 135.595 343.276 135.239C343.685 134.879 344.156 134.61 344.69 134.432C345.228 134.25 345.802 134.159 346.412 134.159C346.829 134.159 347.236 134.208 347.634 134.307C348.035 134.405 348.389 134.568 348.696 134.795C349.007 135.019 349.234 135.324 349.378 135.71C349.526 136.097 349.55 136.58 349.452 137.159L348.48 143H346.503L346.707 141.801H346.639C346.476 142.044 346.264 142.271 346.003 142.483C345.741 142.691 345.431 142.86 345.071 142.989C344.711 143.114 344.304 143.176 343.849 143.176ZM344.628 141.665C345.041 141.665 345.412 141.583 345.741 141.42C346.071 141.254 346.342 141.034 346.554 140.761C346.766 140.489 346.899 140.191 346.952 139.869L347.122 138.841C347.046 138.894 346.929 138.943 346.77 138.989C346.611 139.034 346.433 139.074 346.236 139.108C346.043 139.142 345.851 139.172 345.662 139.199C345.473 139.225 345.31 139.248 345.173 139.267C344.859 139.309 344.571 139.377 344.31 139.472C344.052 139.566 343.838 139.699 343.668 139.869C343.501 140.036 343.397 140.252 343.355 140.517C343.295 140.892 343.384 141.178 343.622 141.375C343.861 141.568 344.196 141.665 344.628 141.665ZM356.361 134.273L356.094 135.864H351.082L351.344 134.273H356.361ZM352.923 132.182H354.98L353.616 140.375C353.575 140.652 353.582 140.864 353.639 141.011C353.7 141.155 353.796 141.254 353.929 141.307C354.065 141.36 354.219 141.386 354.389 141.386C354.514 141.386 354.632 141.377 354.741 141.358C354.851 141.335 354.938 141.318 355.003 141.307L355.094 142.915C354.969 142.953 354.8 142.994 354.588 143.04C354.38 143.085 354.13 143.112 353.838 143.119C353.315 143.131 352.861 143.051 352.474 142.881C352.092 142.706 351.812 142.439 351.634 142.08C351.459 141.716 351.42 141.261 351.514 140.716L352.923 132.182ZM356.626 143L358.081 134.273H360.138L358.683 143H356.626ZM359.411 133.023C359.081 133.023 358.808 132.913 358.592 132.693C358.376 132.473 358.282 132.21 358.308 131.903C358.335 131.597 358.473 131.333 358.723 131.114C358.977 130.894 359.267 130.784 359.592 130.784C359.922 130.784 360.193 130.894 360.405 131.114C360.621 131.333 360.715 131.597 360.689 131.903C360.666 132.21 360.528 132.473 360.274 132.693C360.024 132.913 359.736 133.023 359.411 133.023ZM363.707 137.886L362.866 143H360.804L362.259 134.273H364.23L363.98 135.756H364.088C364.361 135.267 364.743 134.879 365.236 134.591C365.728 134.303 366.302 134.159 366.957 134.159C367.552 134.159 368.052 134.288 368.457 134.545C368.863 134.799 369.151 135.172 369.321 135.665C369.491 136.153 369.518 136.746 369.401 137.443L368.469 143H366.412L367.281 137.761C367.38 137.182 367.306 136.727 367.06 136.398C366.817 136.064 366.427 135.898 365.889 135.898C365.529 135.898 365.198 135.977 364.895 136.136C364.592 136.292 364.336 136.517 364.128 136.812C363.923 137.108 363.783 137.466 363.707 137.886ZM373.798 146.455C373.056 146.455 372.437 146.354 371.94 146.153C371.444 145.956 371.062 145.691 370.793 145.358C370.524 145.025 370.357 144.655 370.293 144.25L372.224 143.801C372.281 143.972 372.372 144.14 372.497 144.307C372.626 144.477 372.815 144.617 373.065 144.727C373.315 144.841 373.649 144.898 374.065 144.898C374.649 144.898 375.158 144.756 375.594 144.472C376.029 144.188 376.298 143.725 376.401 143.085L376.662 141.432H376.56C376.423 141.644 376.236 141.862 375.997 142.085C375.762 142.309 375.465 142.496 375.105 142.648C374.749 142.799 374.321 142.875 373.821 142.875C373.151 142.875 372.569 142.718 372.077 142.403C371.584 142.085 371.23 141.612 371.014 140.983C370.802 140.35 370.776 139.559 370.935 138.608C371.09 137.65 371.382 136.841 371.81 136.182C372.241 135.519 372.759 135.017 373.361 134.676C373.963 134.331 374.599 134.159 375.27 134.159C375.781 134.159 376.188 134.246 376.491 134.42C376.795 134.591 377.024 134.797 377.179 135.04C377.334 135.278 377.448 135.504 377.52 135.716H377.628L377.866 134.273H379.895L378.429 143.142C378.308 143.888 378.029 144.506 377.594 144.994C377.158 145.487 376.611 145.852 375.952 146.091C375.296 146.333 374.579 146.455 373.798 146.455ZM374.639 141.261C375.075 141.261 375.465 141.155 375.81 140.943C376.154 140.731 376.442 140.426 376.673 140.028C376.904 139.631 377.065 139.153 377.156 138.597C377.247 138.047 377.243 137.566 377.145 137.153C377.05 136.741 376.866 136.42 376.594 136.193C376.321 135.962 375.965 135.847 375.526 135.847C375.067 135.847 374.666 135.966 374.321 136.205C373.98 136.443 373.7 136.771 373.48 137.188C373.264 137.6 373.113 138.07 373.026 138.597C372.942 139.131 372.942 139.598 373.026 140C373.113 140.398 373.289 140.708 373.554 140.932C373.823 141.152 374.185 141.261 374.639 141.261ZM384.392 143L384.619 141.688L392 133.131H385.994L386.29 131.364H394.903L394.693 132.676L387.295 141.233H393.301L393.006 143H384.392ZM395.045 143L396.977 131.364H399.085L398.205 136.71H398.347L403.767 131.364H406.341L400.983 136.585L404.449 143H401.915L399.29 138.011L397.733 139.545L397.153 143H395.045ZM409.842 143L411.774 131.364H416.138C417.032 131.364 417.755 131.53 418.308 131.864C418.861 132.193 419.246 132.65 419.462 133.233C419.678 133.812 419.723 134.473 419.598 135.216C419.477 135.962 419.21 136.625 418.797 137.205C418.388 137.784 417.848 138.241 417.178 138.574C416.507 138.903 415.723 139.068 414.825 139.068H411.933L412.223 137.335H414.831C415.354 137.335 415.797 137.244 416.161 137.062C416.528 136.881 416.818 136.631 417.03 136.312C417.242 135.994 417.382 135.629 417.45 135.216C417.515 134.803 417.494 134.439 417.388 134.125C417.282 133.811 417.075 133.566 416.768 133.392C416.465 133.214 416.051 133.125 415.524 133.125H413.592L411.95 143H409.842ZM420.033 143L421.487 134.273H423.482L423.237 135.727H423.328C423.567 135.223 423.904 134.835 424.339 134.562C424.779 134.286 425.249 134.148 425.749 134.148C425.866 134.148 425.993 134.153 426.129 134.165C426.266 134.172 426.383 134.186 426.482 134.205L426.163 136.097C426.076 136.066 425.94 136.04 425.754 136.017C425.572 135.991 425.393 135.977 425.214 135.977C424.839 135.977 424.491 136.059 424.169 136.222C423.851 136.381 423.582 136.602 423.362 136.886C423.143 137.17 423 137.498 422.936 137.869L422.089 143H420.033ZM429.862 143.17C429.002 143.17 428.286 142.981 427.714 142.602C427.146 142.223 426.747 141.691 426.516 141.006C426.285 140.32 426.243 139.525 426.391 138.619C426.538 137.725 426.834 136.943 427.277 136.273C427.724 135.602 428.286 135.083 428.964 134.716C429.646 134.345 430.41 134.159 431.254 134.159C432.114 134.159 432.828 134.35 433.396 134.733C433.964 135.112 434.364 135.644 434.595 136.33C434.83 137.015 434.874 137.814 434.726 138.727C434.582 139.617 434.285 140.396 433.834 141.062C433.387 141.729 432.824 142.248 432.146 142.619C431.468 142.987 430.707 143.17 429.862 143.17ZM430.033 141.523C430.51 141.523 430.929 141.394 431.288 141.136C431.652 140.875 431.949 140.525 432.18 140.085C432.415 139.642 432.578 139.15 432.669 138.608C432.752 138.085 432.754 137.612 432.675 137.188C432.595 136.759 432.425 136.42 432.163 136.17C431.906 135.917 431.548 135.79 431.089 135.79C430.612 135.79 430.19 135.922 429.822 136.188C429.459 136.449 429.161 136.801 428.93 137.244C428.699 137.684 428.54 138.174 428.453 138.716C428.366 139.239 428.362 139.712 428.442 140.136C428.521 140.561 428.692 140.898 428.953 141.148C429.214 141.398 429.574 141.523 430.033 141.523ZM439.597 143.17C438.737 143.17 438.021 142.981 437.449 142.602C436.881 142.223 436.481 141.691 436.25 141.006C436.019 140.32 435.977 139.525 436.125 138.619C436.273 137.725 436.568 136.943 437.011 136.273C437.458 135.602 438.021 135.083 438.699 134.716C439.381 134.345 440.144 134.159 440.989 134.159C441.848 134.159 442.563 134.35 443.131 134.733C443.699 135.112 444.098 135.644 444.33 136.33C444.564 137.015 444.608 137.814 444.46 138.727C444.316 139.617 444.019 140.396 443.568 141.062C443.121 141.729 442.559 142.248 441.881 142.619C441.203 142.987 440.441 143.17 439.597 143.17ZM439.767 141.523C440.244 141.523 440.663 141.394 441.023 141.136C441.386 140.875 441.684 140.525 441.915 140.085C442.15 139.642 442.313 139.15 442.403 138.608C442.487 138.085 442.489 137.612 442.409 137.188C442.33 136.759 442.159 136.42 441.898 136.17C441.64 135.917 441.282 135.79 440.824 135.79C440.347 135.79 439.924 135.922 439.557 136.188C439.193 136.449 438.896 136.801 438.665 137.244C438.434 137.684 438.275 138.174 438.188 138.716C438.1 139.239 438.097 139.712 438.176 140.136C438.256 140.561 438.426 140.898 438.688 141.148C438.949 141.398 439.309 141.523 439.767 141.523ZM451.382 134.273L451.115 135.864H445.956L446.223 134.273H451.382ZM446.053 143L447.649 133.449C447.74 132.862 447.939 132.373 448.246 131.983C448.556 131.593 448.933 131.301 449.376 131.108C449.823 130.915 450.299 130.818 450.803 130.818C451.162 130.818 451.475 130.847 451.74 130.903C452.005 130.96 452.198 131.011 452.32 131.057L451.655 132.648C451.568 132.621 451.462 132.595 451.337 132.568C451.215 132.538 451.073 132.523 450.911 132.523C450.528 132.523 450.242 132.616 450.053 132.801C449.863 132.983 449.738 133.244 449.678 133.585L448.115 143H446.053ZM452.028 143.125C451.68 143.125 451.392 143.004 451.165 142.761C450.938 142.519 450.831 142.223 450.847 141.875C450.862 141.534 451 141.244 451.261 141.006C451.523 140.767 451.824 140.648 452.165 140.648C452.502 140.648 452.788 140.769 453.023 141.011C453.261 141.254 453.369 141.542 453.347 141.875C453.331 142.11 453.259 142.322 453.131 142.511C453.006 142.701 452.847 142.85 452.653 142.96C452.46 143.07 452.252 143.125 452.028 143.125ZM456.669 143.125C456.321 143.125 456.033 143.004 455.805 142.761C455.578 142.519 455.472 142.223 455.487 141.875C455.502 141.534 455.641 141.244 455.902 141.006C456.163 140.767 456.464 140.648 456.805 140.648C457.143 140.648 457.429 140.769 457.663 141.011C457.902 141.254 458.01 141.542 457.987 141.875C457.972 142.11 457.9 142.322 457.771 142.511C457.646 142.701 457.487 142.85 457.294 142.96C457.101 143.07 456.893 143.125 456.669 143.125ZM461.31 143.125C460.961 143.125 460.673 143.004 460.446 142.761C460.219 142.519 460.113 142.223 460.128 141.875C460.143 141.534 460.281 141.244 460.543 141.006C460.804 140.767 461.105 140.648 461.446 140.648C461.783 140.648 462.069 140.769 462.304 141.011C462.543 141.254 462.651 141.542 462.628 141.875C462.613 142.11 462.541 142.322 462.412 142.511C462.287 142.701 462.128 142.85 461.935 142.96C461.741 143.07 461.533 143.125 461.31 143.125Z" fill="#343D65"/>
<path d="M407.732 184.232H402.121C402.121 171.759 391.973 161.611 379.5 161.611C367.027 161.611 356.879 171.759 356.879 184.232H351.269C351.269 168.664 363.933 156 379.5 156C395.068 156 407.732 168.664 407.732 184.232Z" fill="#1C2847"/>
<path d="M379.501 203.438C368.881 203.438 360.243 194.799 360.243 184.179C360.243 173.559 368.881 164.921 379.501 164.921C390.121 164.921 398.759 173.559 398.759 184.179C398.759 194.799 390.121 203.438 379.501 203.438ZM379.501 170.532C371.976 170.532 365.854 176.654 365.854 184.179C365.854 191.705 371.976 197.827 379.501 197.827C387.027 197.827 393.149 191.705 393.149 184.179C393.149 176.654 387.027 170.532 379.501 170.532Z" fill="#1C2847"/>
<path d="M549.354 163.854C549.549 163.658 549.549 163.342 549.354 163.146L546.172 159.964C545.976 159.769 545.66 159.769 545.464 159.964C545.269 160.16 545.269 160.476 545.464 160.672L548.293 163.5L545.464 166.328C545.269 166.524 545.269 166.84 545.464 167.036C545.66 167.231 545.976 167.231 546.172 167.036L549.354 163.854ZM549 163L509 163L509 164L549 164L549 163Z" fill="#2A3557"/>
<path d="M538.41 178.911H536.54C536.54 174.753 533.158 171.37 529 171.37C524.842 171.37 521.46 174.753 521.46 178.911H519.59C519.59 173.721 523.811 169.5 529 169.5C534.189 169.5 538.41 173.721 538.41 178.911Z" fill="#2A3557"/>
<path d="M529 185.313C525.46 185.313 522.581 182.433 522.581 178.893C522.581 175.353 525.46 172.474 529 172.474C532.54 172.474 535.419 175.353 535.419 178.893C535.419 182.433 532.54 185.313 529 185.313ZM529 174.344C526.492 174.344 524.451 176.385 524.451 178.893C524.451 181.402 526.492 183.442 529 183.442C531.509 183.442 533.549 181.402 533.549 178.893C533.549 176.385 531.509 174.344 529 174.344Z" fill="#2A3557"/>
<rect x="559.5" y="105" width="179" height="117" rx="3.2988" fill="#F4D4DA" fill-opacity="0.4"/>
<rect x="623" y="125.291" width="52" height="7" fill="#1C2847" fill-opacity="0.4"/>
<rect x="629" y="136.85" width="40" height="3.35326" fill="#1C2847" fill-opacity="0.4"/>
<rect x="633" y="141.203" width="32" height="3.35326" fill="#1C2847" fill-opacity="0.4"/>
<rect x="627" y="148.557" width="18" height="2" fill="#1C2847" fill-opacity="0.4"/>
<rect x="627" y="151.557" width="44" height="4" fill="#1C2847" fill-opacity="0.4"/>
<rect x="616.914" y="163.736" width="64.1712" height="33.9945" rx="3.40892" fill="#F7E9AB"/>
<path d="M631.186 176.12C631.889 176.116 632.68 176.27 633.559 176.583L633.189 177.989C632.373 177.7 631.709 177.555 631.197 177.555C630.783 177.555 630.457 177.637 630.219 177.802C629.98 177.966 629.861 178.188 629.861 178.469C629.861 178.774 629.971 179.016 630.189 179.196C630.412 179.376 630.816 179.542 631.402 179.694C632.266 179.917 632.879 180.225 633.242 180.62C633.605 181.01 633.787 181.55 633.787 182.237C633.787 183.069 633.506 183.708 632.943 184.153C632.385 184.594 631.586 184.815 630.547 184.815C629.699 184.815 628.791 184.624 627.822 184.241L628.256 182.876C628.791 183.067 629.229 183.202 629.568 183.28C629.908 183.354 630.23 183.391 630.535 183.391C630.977 183.391 631.316 183.298 631.555 183.11C631.797 182.919 631.918 182.655 631.918 182.319C631.918 182.104 631.867 181.925 631.766 181.78C631.664 181.635 631.492 181.507 631.25 181.393C631.008 181.276 630.658 181.161 630.201 181.048C629.439 180.864 628.883 180.579 628.531 180.192C628.18 179.805 628.004 179.296 628.004 178.663C628.004 177.854 628.281 177.229 628.836 176.788C629.395 176.343 630.178 176.12 631.186 176.12ZM635.035 175.915H636.834V177.555H635.035V175.915ZM635.035 178.516H636.834V184.733H635.035V178.516ZM641.211 178.387C641.508 178.387 641.785 178.43 642.043 178.516C642.305 178.598 642.531 178.719 642.723 178.88L642.904 178.446H644.357V184.628C644.357 185.565 644.068 186.278 643.49 186.766C642.916 187.259 642.133 187.505 641.141 187.505C640.637 187.505 640.137 187.446 639.641 187.329C639.145 187.216 638.703 187.05 638.316 186.831L638.873 185.659C639.154 185.811 639.498 185.94 639.904 186.046C640.311 186.155 640.686 186.21 641.029 186.21C641.518 186.21 641.893 186.083 642.154 185.829C642.42 185.579 642.553 185.21 642.553 184.721V184.059C642.072 184.516 641.506 184.745 640.854 184.745C639.982 184.745 639.305 184.477 638.82 183.942C638.336 183.407 638.094 182.655 638.094 181.686C638.094 180.655 638.369 179.848 638.92 179.266C639.471 178.68 640.234 178.387 641.211 178.387ZM641.545 179.583C641.018 179.583 640.613 179.759 640.332 180.11C640.055 180.458 639.916 180.964 639.916 181.628C639.916 182.221 640.027 182.678 640.25 182.999C640.477 183.315 640.801 183.473 641.223 183.473C641.543 183.473 641.822 183.382 642.061 183.198C642.303 183.014 642.467 182.766 642.553 182.454V179.846C642.248 179.671 641.912 179.583 641.545 179.583ZM647.762 179.319C648.316 178.671 649.045 178.346 649.947 178.346C650.604 178.346 651.109 178.54 651.465 178.927C651.82 179.309 651.998 179.852 651.998 180.555V184.733H650.199V180.655C650.199 180.288 650.127 180.022 649.982 179.858C649.838 179.694 649.605 179.612 649.285 179.612C648.996 179.612 648.727 179.678 648.477 179.811C648.227 179.94 648.025 180.116 647.873 180.339V184.733H646.068V178.446H647.568L647.762 179.319ZM657.957 182.524C657.957 182.884 658.029 183.145 658.174 183.309C658.318 183.473 658.551 183.555 658.871 183.555C659.152 183.555 659.418 183.493 659.668 183.368C659.922 183.239 660.123 183.061 660.271 182.835V178.446H662.076V184.733H660.588L660.383 183.854C660.117 184.175 659.805 184.417 659.445 184.581C659.086 184.745 658.689 184.827 658.256 184.827C657.576 184.827 657.057 184.637 656.697 184.259C656.338 183.88 656.158 183.335 656.158 182.624V178.446H657.957V182.524ZM667.332 178.364C668.203 178.364 668.881 178.634 669.365 179.173C669.85 179.712 670.092 180.477 670.092 181.469C670.092 182.165 669.953 182.764 669.676 183.268C669.398 183.772 669.006 184.159 668.498 184.428C667.99 184.694 667.389 184.827 666.693 184.827C666.365 184.827 666.014 184.784 665.639 184.698V187.481H663.84V178.446H665.217L665.492 179.19C665.758 178.901 666.035 178.692 666.324 178.563C666.617 178.43 666.953 178.364 667.332 178.364ZM666.588 183.602C667.131 183.602 667.547 183.427 667.836 183.075C668.129 182.723 668.275 182.208 668.275 181.528C668.275 180.262 667.836 179.632 666.957 179.635C666.637 179.635 666.361 179.721 666.131 179.893C665.904 180.065 665.74 180.307 665.639 180.62V183.473C665.869 183.528 666.043 183.563 666.16 183.579C666.277 183.594 666.42 183.602 666.588 183.602Z" fill="#1C2847"/>
<rect x="616.914" y="163.736" width="64.1712" height="33.9945" rx="3.40892" stroke="#1C2847" stroke-width="0.358834"/>
<rect x="559.5" y="105" width="179" height="117" rx="3.2988" stroke="#3F4973"/>
<path d="M663.411 38.9106H660.646C660.646 32.7648 655.646 27.7645 649.5 27.7645C643.354 27.7645 638.354 32.7648 638.354 38.9106H635.589C635.589 31.24 641.829 25 649.5 25C657.171 25 663.411 31.24 663.411 38.9106Z" fill="#1C2847"/>
<path d="M649.5 48.3742C644.267 48.3742 640.011 44.1179 640.011 38.885C640.011 33.6522 644.267 29.3959 649.5 29.3959C654.733 29.3959 658.989 33.6522 658.989 38.885C658.989 44.1179 654.733 48.3742 649.5 48.3742ZM649.5 32.1604C645.792 32.1604 642.775 35.177 642.775 38.885C642.775 42.5931 645.792 45.6097 649.5 45.6097C653.208 45.6097 656.225 42.5931 656.225 38.885C656.225 35.177 653.208 32.1604 649.5 32.1604Z" fill="#1C2847"/>
<rect x="649.79" y="25" width="13.621" height="13.621" rx="6.81051" fill="#F7E9AB"/>
<path d="M659.911 29.7035L655.697 33.9178L653.59 31.8107" stroke="#1C2847" stroke-width="1.13509" stroke-linecap="round" stroke-linejoin="round"/>
<path d="M630.053 58.1923L632.703 66.2065H632.807L635.452 58.1923H637.481L633.891 68.3741H631.614L628.03 58.1923H630.053ZM641.302 68.5233C640.537 68.5233 639.876 68.3642 639.319 68.046C638.765 67.7245 638.339 67.2705 638.041 66.6838C637.743 66.0938 637.594 65.3995 637.594 64.6007C637.594 63.8152 637.743 63.1258 638.041 62.5325C638.343 61.9359 638.764 61.4719 639.304 61.1405C639.844 60.8057 640.479 60.6384 641.208 60.6384C641.679 60.6384 642.123 60.7146 642.54 60.867C642.961 61.0162 643.333 61.2482 643.654 61.5631C643.979 61.8779 644.234 62.279 644.42 62.7662C644.605 63.2501 644.698 63.8268 644.698 64.4963V65.0482H638.439V63.8351H642.973C642.97 63.4904 642.895 63.1838 642.749 62.9153C642.603 62.6436 642.4 62.4298 642.138 62.274C641.879 62.1182 641.578 62.0403 641.233 62.0403C640.865 62.0403 640.542 62.1298 640.263 62.3088C639.985 62.4845 639.768 62.7165 639.612 63.0048C639.46 63.2899 639.382 63.6031 639.378 63.9445V65.0034C639.378 65.4475 639.46 65.8287 639.622 66.1469C639.784 66.4617 640.012 66.7037 640.303 66.8727C640.595 67.0384 640.936 67.1213 641.327 67.1213C641.589 67.1213 641.826 67.0848 642.038 67.0119C642.25 66.9357 642.434 66.8247 642.59 66.6788C642.746 66.533 642.864 66.3524 642.943 66.1369L644.623 66.3258C644.517 66.77 644.315 67.1578 644.017 67.4892C643.722 67.8173 643.344 68.0725 642.883 68.2548C642.423 68.4338 641.896 68.5233 641.302 68.5233ZM646.221 68.3741V60.7378H647.966V62.0105H648.045C648.184 61.5697 648.423 61.23 648.761 60.9913C649.102 60.7494 649.492 60.6284 649.929 60.6284C650.029 60.6284 650.14 60.6334 650.263 60.6433C650.388 60.65 650.493 60.6616 650.576 60.6781V62.3337C650.499 62.3071 650.379 62.2839 650.213 62.2641C650.05 62.2409 649.893 62.2293 649.741 62.2293C649.412 62.2293 649.117 62.3005 648.856 62.443C648.597 62.5822 648.393 62.7761 648.244 63.0247C648.095 63.2733 648.02 63.56 648.02 63.8848V68.3741H646.221ZM651.771 68.3741V60.7378H653.571V68.3741H651.771ZM652.676 59.654C652.391 59.654 652.146 59.5595 651.94 59.3706C651.735 59.1784 651.632 58.948 651.632 58.6795C651.632 58.4078 651.735 58.1774 651.94 57.9885C652.146 57.7963 652.391 57.7001 652.676 57.7001C652.965 57.7001 653.21 57.7963 653.412 57.9885C653.618 58.1774 653.72 58.4078 653.72 58.6795C653.72 58.948 653.618 59.1784 653.412 59.3706C653.21 59.5595 652.965 59.654 652.676 59.654ZM659.29 60.7378V62.1298H654.775V60.7378H659.29ZM655.904 68.3741V60.0169C655.904 59.5032 656.01 59.0756 656.222 58.7342C656.438 58.3928 656.726 58.1376 657.087 57.9686C657.449 57.7996 657.85 57.7151 658.29 57.7151C658.602 57.7151 658.879 57.7399 659.121 57.7896C659.363 57.8393 659.542 57.8841 659.658 57.9239L659.3 59.3159C659.223 59.2927 659.127 59.2695 659.011 59.2463C658.895 59.2198 658.766 59.2065 658.623 59.2065C658.289 59.2065 658.052 59.2877 657.913 59.4501C657.777 59.6092 657.709 59.8379 657.709 60.1362V68.3741H655.904ZM661.818 71.2378C661.572 71.2378 661.345 71.2179 661.137 71.1781C660.931 71.1417 660.767 71.0986 660.644 71.0489L661.062 69.6469C661.324 69.7231 661.558 69.7596 661.763 69.7562C661.969 69.7529 662.149 69.6883 662.305 69.5624C662.464 69.4397 662.598 69.2342 662.708 68.9459L662.862 68.5332L660.093 60.7378H662.002L663.762 66.5048H663.841L665.606 60.7378H667.52L664.463 69.2989C664.32 69.7032 664.131 70.0496 663.896 70.3379C663.661 70.6296 663.372 70.8517 663.031 71.0041C662.693 71.1599 662.288 71.2378 661.818 71.2378ZM620.996 84.3741V83.2257L626.216 75.7385H620.966V74.1923H628.503V75.3408L623.288 82.828H628.533V84.3741H620.996ZM630.318 84.3741V74.1923H632.162V78.8706H632.286L636.259 74.1923H638.511L634.573 78.7612L638.546 84.3741H636.328L633.291 80.0091L632.162 81.3415V84.3741H630.318ZM643.265 84.3741V74.1923H647.083C647.865 74.1923 648.522 74.3382 649.052 74.6298C649.586 74.9215 649.988 75.3225 650.26 75.833C650.535 76.3401 650.673 76.9168 650.673 77.5631C650.673 78.216 650.535 78.796 650.26 79.3031C649.985 79.8102 649.579 80.2096 649.042 80.5013C648.505 80.7896 647.844 80.9338 647.058 80.9338H644.528V79.4175H646.81C647.267 79.4175 647.642 79.3379 647.933 79.1788C648.225 79.0197 648.44 78.801 648.58 78.5226C648.722 78.2442 648.793 77.9243 648.793 77.5631C648.793 77.2018 648.722 76.8836 648.58 76.6085C648.44 76.3334 648.223 76.1196 647.928 75.9672C647.637 75.8114 647.261 75.7335 646.8 75.7335H645.109V84.3741H643.265ZM652.195 84.3741V76.7378H653.94V78.0105H654.02C654.159 77.5697 654.398 77.23 654.736 76.9913C655.077 76.7494 655.467 76.6284 655.904 76.6284C656.003 76.6284 656.114 76.6334 656.237 76.6433C656.363 76.65 656.467 76.6616 656.55 76.6781V78.3337C656.474 78.3071 656.353 78.2839 656.187 78.2641C656.025 78.2409 655.868 78.2293 655.715 78.2293C655.387 78.2293 655.092 78.3005 654.83 78.443C654.572 78.5822 654.368 78.7761 654.219 79.0247C654.07 79.2733 653.995 79.56 653.995 79.8848V84.3741H652.195ZM660.763 84.5233C660.017 84.5233 659.37 84.3592 658.824 84.0311C658.277 83.703 657.852 83.2439 657.551 82.654C657.253 82.064 657.103 81.3746 657.103 80.5858C657.103 79.797 657.253 79.1059 657.551 78.5126C657.852 77.9194 658.277 77.4587 658.824 77.1305C659.37 76.8024 660.017 76.6384 660.763 76.6384C661.508 76.6384 662.155 76.8024 662.701 77.1305C663.248 77.4587 663.671 77.9194 663.969 78.5126C664.271 79.1059 664.422 79.797 664.422 80.5858C664.422 81.3746 664.271 82.064 663.969 82.654C663.671 83.2439 663.248 83.703 662.701 84.0311C662.155 84.3592 661.508 84.5233 660.763 84.5233ZM660.772 83.0815C661.177 83.0815 661.515 82.9705 661.787 82.7484C662.058 82.5231 662.261 82.2214 662.393 81.8436C662.529 81.4658 662.597 81.0448 662.597 80.5808C662.597 80.1135 662.529 79.6909 662.393 79.3131C662.261 78.9319 662.058 78.6286 661.787 78.4033C661.515 78.1779 661.177 78.0652 660.772 78.0652C660.358 78.0652 660.013 78.1779 659.738 78.4033C659.467 78.6286 659.263 78.9319 659.127 79.3131C658.994 79.6909 658.928 80.1135 658.928 80.5808C658.928 81.0448 658.994 81.4658 659.127 81.8436C659.263 82.2214 659.467 82.5231 659.738 82.7484C660.013 82.9705 660.358 83.0815 660.772 83.0815ZM669.28 84.5233C668.534 84.5233 667.888 84.3592 667.341 84.0311C666.794 83.703 666.37 83.2439 666.068 82.654C665.77 82.064 665.621 81.3746 665.621 80.5858C665.621 79.797 665.77 79.1059 666.068 78.5126C666.37 77.9194 666.794 77.4587 667.341 77.1305C667.888 76.8024 668.534 76.6384 669.28 76.6384C670.026 76.6384 670.672 76.8024 671.219 77.1305C671.766 77.4587 672.188 77.9194 672.487 78.5126C672.788 79.1059 672.939 79.797 672.939 80.5858C672.939 81.3746 672.788 82.064 672.487 82.654C672.188 83.2439 671.766 83.703 671.219 84.0311C670.672 84.3592 670.026 84.5233 669.28 84.5233ZM669.29 83.0815C669.694 83.0815 670.032 82.9705 670.304 82.7484C670.576 82.5231 670.778 82.2214 670.911 81.8436C671.047 81.4658 671.115 81.0448 671.115 80.5808C671.115 80.1135 671.047 79.6909 670.911 79.3131C670.778 78.9319 670.576 78.6286 670.304 78.4033C670.032 78.1779 669.694 78.0652 669.29 78.0652C668.876 78.0652 668.531 78.1779 668.256 78.4033C667.984 78.6286 667.78 78.9319 667.644 79.3131C667.512 79.6909 667.446 80.1135 667.446 80.5808C667.446 81.0448 667.512 81.4658 667.644 81.8436C667.78 82.2214 667.984 82.5231 668.256 82.7484C668.531 82.9705 668.876 83.0815 669.29 83.0815ZM678.335 76.7378V78.1298H673.82V76.7378H678.335ZM674.949 84.3741V76.0169C674.949 75.5032 675.055 75.0756 675.267 74.7342C675.483 74.3928 675.771 74.1376 676.132 73.9686C676.493 73.7996 676.895 73.7151 677.335 73.7151C677.647 73.7151 677.924 73.7399 678.166 73.7896C678.408 73.8393 678.587 73.8841 678.703 73.9239L678.345 75.3159C678.268 75.2927 678.172 75.2695 678.056 75.2463C677.94 75.2198 677.811 75.2065 677.668 75.2065C677.334 75.2065 677.097 75.2877 676.957 75.4501C676.822 75.6092 676.754 75.8379 676.754 76.1362V84.3741H674.949Z" fill="#1C2847"/>
<rect x="0.5" y="0.5" width="758" height="306" rx="9.5" stroke="white"/>
</svg>
