<svg width="759" height="307" viewBox="0 0 759 307" fill="none" xmlns="http://www.w3.org/2000/svg">
<rect x="20.5" y="105" width="179" height="117" rx="3.2988" fill="#F4D4DA" fill-opacity="0.4"/>
<rect x="84" y="122.097" width="52" height="7" fill="#1C2847" fill-opacity="0.4"/>
<rect x="91" y="131.097" width="38" height="7.34571" fill="#1C2847" fill-opacity="0.4"/>
<rect x="90" y="143.001" width="40" height="3.35326" fill="#1C2847" fill-opacity="0.4"/>
<rect x="94" y="147.354" width="32" height="3.35326" fill="#1C2847" fill-opacity="0.4"/>
<rect x="97.4321" y="154.708" width="10.6686" height="4.04346" fill="#1C2847" fill-opacity="0.4"/>
<rect x="111.899" y="154.708" width="10.6686" height="4.04346" fill="#1C2847" fill-opacity="0.4"/>
<rect x="69.4148" y="166.93" width="81.1712" height="33.9945" rx="3.40892" fill="#F7E9AB"/>
<path d="M85.2563 181.641V182.719L82.3384 186.598H85.3618V187.928H80.3345V186.814L83.2524 182.971H80.4692V181.641H85.2563ZM86.5337 178.869H88.3384V187.928H86.5337V178.869ZM92.7271 187.928H90.7231L88.4556 184.436L90.4478 181.641H92.3579L90.3306 184.377L92.7271 187.928ZM97.2739 179.314C97.7231 179.314 98.1704 179.373 98.6157 179.49C99.0649 179.604 99.4673 179.764 99.8228 179.971L99.2778 181.242C98.9419 181.082 98.6313 180.967 98.3462 180.896C98.0649 180.822 97.7798 180.785 97.4907 180.785C96.6821 180.785 96.0669 181.029 95.645 181.518C95.2271 182.006 95.0181 182.715 95.0181 183.645C95.0181 184.59 95.2271 185.307 95.645 185.795C96.0669 186.279 96.6821 186.521 97.4907 186.521C98.1157 186.521 98.7681 186.379 99.4478 186.094L99.8931 187.436C99.0142 187.826 98.1333 188.021 97.2505 188.021C95.9224 188.021 94.9048 187.648 94.1978 186.902C93.4907 186.152 93.1372 185.078 93.1372 183.68C93.1372 182.777 93.3013 181.998 93.6294 181.342C93.9575 180.686 94.4302 180.184 95.0474 179.836C95.6685 179.488 96.4106 179.314 97.2739 179.314ZM103.661 181.494C104.696 181.494 105.489 181.777 106.04 182.344C106.59 182.906 106.866 183.715 106.866 184.77C106.866 185.824 106.59 186.637 106.04 187.207C105.489 187.777 104.696 188.063 103.661 188.063C102.637 188.063 101.848 187.779 101.293 187.213C100.739 186.643 100.461 185.828 100.461 184.77C100.461 183.715 100.737 182.906 101.288 182.344C101.838 181.777 102.629 181.494 103.661 181.494ZM103.661 182.842C102.735 182.838 102.272 183.48 102.272 184.77C102.272 186.059 102.735 186.703 103.661 186.703C104.59 186.703 105.055 186.059 105.055 184.77C105.055 183.48 104.59 182.838 103.661 182.842ZM109.79 182.514C110.344 181.865 111.073 181.541 111.975 181.541C112.631 181.541 113.137 181.734 113.493 182.121C113.848 182.504 114.026 183.047 114.026 183.75V187.928H112.227V183.85C112.227 183.482 112.155 183.217 112.01 183.053C111.866 182.889 111.633 182.807 111.313 182.807C111.024 182.807 110.754 182.873 110.504 183.006C110.254 183.135 110.053 183.311 109.901 183.533V187.928H108.096V181.641H109.596L109.79 182.514ZM117.29 182.514C117.844 181.865 118.573 181.541 119.475 181.541C120.131 181.541 120.637 181.734 120.993 182.121C121.348 182.504 121.526 183.047 121.526 183.75V187.928H119.727V183.85C119.727 183.482 119.655 183.217 119.51 183.053C119.366 182.889 119.133 182.807 118.813 182.807C118.524 182.807 118.254 182.873 118.004 183.006C117.754 183.135 117.553 183.311 117.401 183.533V187.928H115.596V181.641H117.096L117.29 182.514ZM124.385 185.121C124.479 186.191 125.03 186.727 126.038 186.727C126.35 186.727 126.665 186.691 126.981 186.621C127.297 186.547 127.647 186.43 128.03 186.27L128.463 187.389C127.51 187.83 126.629 188.049 125.821 188.045C124.829 188.045 124.049 187.756 123.483 187.178C122.917 186.6 122.633 185.797 122.633 184.77C122.633 183.746 122.911 182.949 123.465 182.379C124.02 181.805 124.797 181.518 125.797 181.518C127.676 181.518 128.616 182.582 128.616 184.711V185.121H124.385ZM126.963 184.078C126.913 183.203 126.528 182.766 125.809 182.766C125.411 182.766 125.096 182.875 124.866 183.094C124.639 183.309 124.491 183.637 124.42 184.078H126.963ZM132.624 181.541C133.264 181.541 133.872 181.689 134.446 181.986L134.047 183.176C133.622 182.953 133.209 182.842 132.811 182.842C132.292 182.842 131.889 183.01 131.604 183.346C131.323 183.682 131.182 184.156 131.182 184.77C131.182 185.379 131.327 185.85 131.616 186.182C131.909 186.514 132.329 186.68 132.875 186.68C133.325 186.68 133.764 186.584 134.194 186.393L134.481 187.617C134.192 187.746 133.879 187.846 133.543 187.916C133.208 187.986 132.887 188.021 132.583 188.021C131.543 188.021 130.749 187.742 130.198 187.184C129.647 186.625 129.372 185.82 129.372 184.77C129.372 183.746 129.655 182.953 130.221 182.391C130.788 181.824 131.588 181.541 132.624 181.541ZM139.479 187.687C138.936 187.91 138.417 188.021 137.92 188.021C136.538 188.021 135.846 187.361 135.846 186.041V182.9H134.809V181.641H135.963L136.309 179.842H137.633V181.641H139.35V182.9H137.633V185.789C137.633 186.109 137.692 186.338 137.809 186.475C137.93 186.611 138.135 186.68 138.424 186.68C138.67 186.68 138.934 186.631 139.215 186.533L139.479 187.687Z" fill="#1C2847"/>
<rect x="69.4148" y="166.93" width="81.1712" height="33.9945" rx="3.40892" stroke="#1C2847" stroke-width="0.358834"/>
<rect x="20.5" y="105" width="179" height="117" rx="3.2988" stroke="#3F4973"/>
<path d="M250.354 163.854C250.549 163.658 250.549 163.342 250.354 163.146L247.172 159.964C246.976 159.769 246.66 159.769 246.464 159.964C246.269 160.16 246.269 160.476 246.464 160.672L249.293 163.5L246.464 166.328C246.269 166.524 246.269 166.84 246.464 167.036C246.66 167.231 246.976 167.231 247.172 167.036L250.354 163.854ZM210 164L250 164L250 163L210 163L210 164Z" fill="#2A3557"/>
<rect x="260" y="80" width="239" height="167" rx="5" fill="#F7E9AB"/>
<path d="M284.516 103.063C284.516 102.929 284.477 102.808 284.399 102.7C284.321 102.592 284.176 102.493 283.965 102.402C283.758 102.307 283.457 102.221 283.064 102.143C282.71 102.065 282.38 101.968 282.073 101.851C281.771 101.73 281.507 101.586 281.283 101.417C281.062 101.249 280.89 101.05 280.764 100.821C280.639 100.588 280.577 100.322 280.577 100.024C280.577 99.7308 280.639 99.4544 280.764 99.1952C280.894 98.9361 281.078 98.7072 281.315 98.5085C281.557 98.3055 281.851 98.1479 282.196 98.0356C282.546 97.919 282.939 97.8606 283.375 97.8606C283.984 97.8606 284.507 97.9578 284.943 98.1522C285.384 98.3465 285.721 98.6143 285.954 98.9555C286.191 99.2924 286.31 99.6768 286.31 100.109H284.444C284.444 99.9273 284.405 99.7653 284.328 99.6228C284.254 99.476 284.138 99.3615 283.978 99.2794C283.822 99.1931 283.619 99.1499 283.369 99.1499C283.162 99.1499 282.982 99.1866 282.831 99.26C282.68 99.3291 282.563 99.4241 282.481 99.5451C282.404 99.6617 282.365 99.7913 282.365 99.9338C282.365 100.042 282.386 100.139 282.429 100.225C282.477 100.307 282.553 100.383 282.656 100.452C282.76 100.521 282.894 100.586 283.058 100.646C283.226 100.703 283.434 100.754 283.68 100.802C284.185 100.906 284.636 101.042 285.034 101.21C285.431 101.374 285.746 101.599 285.98 101.884C286.213 102.165 286.33 102.534 286.33 102.992C286.33 103.303 286.26 103.588 286.122 103.847C285.984 104.106 285.785 104.333 285.526 104.527C285.267 104.717 284.956 104.866 284.593 104.974C284.235 105.078 283.831 105.13 283.382 105.13C282.73 105.13 282.177 105.013 281.723 104.78C281.274 104.547 280.933 104.251 280.7 103.892C280.471 103.529 280.356 103.158 280.356 102.778H282.125C282.134 103.033 282.198 103.238 282.319 103.393C282.445 103.549 282.602 103.661 282.792 103.73C282.987 103.799 283.196 103.834 283.421 103.834C283.663 103.834 283.863 103.801 284.023 103.737C284.183 103.668 284.304 103.577 284.386 103.465C284.472 103.348 284.516 103.214 284.516 103.063ZM289.51 97.9902V105H287.638V97.9902H289.51ZM287.522 96.1633C287.522 95.8912 287.617 95.6666 287.807 95.4895C287.997 95.3124 288.252 95.2239 288.571 95.2239C288.886 95.2239 289.139 95.3124 289.329 95.4895C289.523 95.6666 289.621 95.8912 289.621 96.1633C289.621 96.4354 289.523 96.66 289.329 96.837C289.139 97.0141 288.886 97.1027 288.571 97.1027C288.252 97.1027 287.997 97.0141 287.807 96.837C287.617 96.66 287.522 96.4354 287.522 96.1633ZM294.842 103.063C294.842 102.929 294.803 102.808 294.726 102.7C294.648 102.592 294.503 102.493 294.292 102.402C294.084 102.307 293.784 102.221 293.391 102.143C293.037 102.065 292.707 101.968 292.4 101.851C292.098 101.73 291.834 101.586 291.61 101.417C291.389 101.249 291.217 101.05 291.091 100.821C290.966 100.588 290.903 100.322 290.903 100.024C290.903 99.7308 290.966 99.4544 291.091 99.1952C291.221 98.9361 291.404 98.7072 291.642 98.5085C291.884 98.3055 292.177 98.1479 292.523 98.0356C292.873 97.919 293.266 97.8606 293.702 97.8606C294.311 97.8606 294.834 97.9578 295.27 98.1522C295.71 98.3465 296.047 98.6143 296.281 98.9555C296.518 99.2924 296.637 99.6768 296.637 100.109H294.771C294.771 99.9273 294.732 99.7653 294.654 99.6228C294.581 99.476 294.464 99.3615 294.305 99.2794C294.149 99.1931 293.946 99.1499 293.696 99.1499C293.488 99.1499 293.309 99.1866 293.158 99.26C293.007 99.3291 292.89 99.4241 292.808 99.5451C292.73 99.6617 292.691 99.7913 292.691 99.9338C292.691 100.042 292.713 100.139 292.756 100.225C292.804 100.307 292.879 100.383 292.983 100.452C293.087 100.521 293.221 100.586 293.385 100.646C293.553 100.703 293.76 100.754 294.007 100.802C294.512 100.906 294.963 101.042 295.361 101.21C295.758 101.374 296.073 101.599 296.306 101.884C296.54 102.165 296.656 102.534 296.656 102.992C296.656 103.303 296.587 103.588 296.449 103.847C296.311 104.106 296.112 104.333 295.853 104.527C295.594 104.717 295.283 104.866 294.92 104.974C294.562 105.078 294.158 105.13 293.709 105.13C293.056 105.13 292.504 105.013 292.05 104.78C291.601 104.547 291.26 104.251 291.026 103.892C290.798 103.529 290.683 103.158 290.683 102.778H292.452C292.46 103.033 292.525 103.238 292.646 103.393C292.771 103.549 292.929 103.661 293.119 103.73C293.313 103.799 293.523 103.834 293.747 103.834C293.989 103.834 294.19 103.801 294.35 103.737C294.51 103.668 294.631 103.577 294.713 103.465C294.799 103.348 294.842 103.214 294.842 103.063ZM299.734 99.4414V105H297.861V97.9902H299.617L299.734 99.4414ZM299.474 101.249H298.956C298.956 100.761 299.015 100.312 299.131 99.9014C299.252 99.4868 299.427 99.1283 299.656 98.826C299.889 98.5193 300.176 98.2818 300.518 98.1133C300.859 97.9449 301.254 97.8606 301.703 97.8606C302.014 97.8606 302.299 97.9082 302.558 98.0032C302.817 98.0939 303.04 98.2386 303.226 98.4372C303.416 98.6316 303.562 98.8864 303.666 99.2017C303.77 99.5127 303.822 99.8863 303.822 100.322V105H301.956V100.53C301.956 100.21 301.913 99.964 301.826 99.7913C301.74 99.6185 301.617 99.4976 301.457 99.4285C301.301 99.3594 301.114 99.3248 300.893 99.3248C300.651 99.3248 300.44 99.3745 300.258 99.4738C300.081 99.5731 299.934 99.7114 299.818 99.8884C299.701 100.061 299.615 100.264 299.559 100.497C299.503 100.731 299.474 100.981 299.474 101.249ZM303.647 101.035L302.979 101.119C302.979 100.662 303.036 100.236 303.148 99.8431C303.264 99.4501 303.435 99.1045 303.66 98.8065C303.889 98.5085 304.171 98.2774 304.508 98.1133C304.845 97.9449 305.234 97.8606 305.674 97.8606C306.011 97.8606 306.318 97.9103 306.594 98.0097C306.871 98.1047 307.106 98.258 307.301 98.4696C307.499 98.6769 307.65 98.949 307.754 99.2859C307.862 99.6228 307.916 100.035 307.916 100.523V105H306.044V100.523C306.044 100.199 306.001 99.9532 305.914 99.7848C305.832 99.612 305.711 99.4932 305.551 99.4285C305.396 99.3594 305.21 99.3248 304.994 99.3248C304.77 99.3248 304.573 99.3701 304.405 99.4608C304.236 99.5472 304.096 99.6682 303.984 99.8236C303.871 99.9791 303.787 100.161 303.731 100.368C303.675 100.571 303.647 100.793 303.647 101.035ZM309.063 101.566V101.43C309.063 100.916 309.136 100.443 309.283 100.012C309.43 99.5753 309.644 99.1974 309.924 98.8778C310.205 98.5582 310.551 98.3098 310.961 98.1327C311.371 97.9513 311.842 97.8606 312.373 97.8606C312.905 97.8606 313.377 97.9513 313.792 98.1327C314.207 98.3098 314.554 98.5582 314.835 98.8778C315.12 99.1974 315.336 99.5753 315.483 100.012C315.63 100.443 315.703 100.916 315.703 101.43V101.566C315.703 102.076 315.63 102.549 315.483 102.985C315.336 103.417 315.12 103.795 314.835 104.119C314.554 104.439 314.209 104.687 313.799 104.864C313.388 105.041 312.917 105.13 312.386 105.13C311.855 105.13 311.382 105.041 310.967 104.864C310.557 104.687 310.209 104.439 309.924 104.119C309.644 103.795 309.43 103.417 309.283 102.985C309.136 102.549 309.063 102.076 309.063 101.566ZM310.929 101.43V101.566C310.929 101.86 310.954 102.134 311.006 102.389C311.058 102.644 311.14 102.869 311.252 103.063C311.369 103.253 311.52 103.402 311.706 103.51C311.892 103.618 312.118 103.672 312.386 103.672C312.645 103.672 312.868 103.618 313.054 103.51C313.239 103.402 313.388 103.253 313.501 103.063C313.613 102.869 313.695 102.644 313.747 102.389C313.803 102.134 313.831 101.86 313.831 101.566V101.43C313.831 101.145 313.803 100.877 313.747 100.627C313.695 100.372 313.611 100.148 313.494 99.9532C313.382 99.7545 313.233 99.5991 313.047 99.4868C312.861 99.3745 312.637 99.3183 312.373 99.3183C312.11 99.3183 311.885 99.3745 311.699 99.4868C311.518 99.5991 311.369 99.7545 311.252 99.9532C311.14 100.148 311.058 100.372 311.006 100.627C310.954 100.877 310.929 101.145 310.929 101.43ZM316.941 104.099C316.941 103.823 317.036 103.592 317.226 103.406C317.42 103.221 317.677 103.128 317.997 103.128C318.316 103.128 318.571 103.221 318.761 103.406C318.955 103.592 319.053 103.823 319.053 104.099C319.053 104.376 318.955 104.607 318.761 104.793C318.571 104.978 318.316 105.071 317.997 105.071C317.677 105.071 317.42 104.978 317.226 104.793C317.036 104.607 316.941 104.376 316.941 104.099ZM322.668 97.9902V105H320.795V97.9902H322.668ZM320.679 96.1633C320.679 95.8912 320.774 95.6666 320.964 95.4895C321.154 95.3124 321.409 95.2239 321.728 95.2239C322.044 95.2239 322.296 95.3124 322.486 95.4895C322.681 95.6666 322.778 95.8912 322.778 96.1633C322.778 96.4354 322.681 96.66 322.486 96.837C322.296 97.0141 322.044 97.1027 321.728 97.1027C321.409 97.1027 321.154 97.0141 320.964 96.837C320.774 96.66 320.679 96.4354 320.679 96.1633ZM323.912 101.566V101.43C323.912 100.916 323.985 100.443 324.132 100.012C324.279 99.5753 324.492 99.1974 324.773 98.8778C325.054 98.5582 325.399 98.3098 325.81 98.1327C326.22 97.9513 326.691 97.8606 327.222 97.8606C327.753 97.8606 328.226 97.9513 328.641 98.1327C329.056 98.3098 329.403 98.5582 329.684 98.8778C329.969 99.1974 330.185 99.5753 330.332 100.012C330.479 100.443 330.552 100.916 330.552 101.43V101.566C330.552 102.076 330.479 102.549 330.332 102.985C330.185 103.417 329.969 103.795 329.684 104.119C329.403 104.439 329.058 104.687 328.647 104.864C328.237 105.041 327.766 105.13 327.235 105.13C326.704 105.13 326.231 105.041 325.816 104.864C325.406 104.687 325.058 104.439 324.773 104.119C324.492 103.795 324.279 103.417 324.132 102.985C323.985 102.549 323.912 102.076 323.912 101.566ZM325.777 101.43V101.566C325.777 101.86 325.803 102.134 325.855 102.389C325.907 102.644 325.989 102.869 326.101 103.063C326.218 103.253 326.369 103.402 326.555 103.51C326.741 103.618 326.967 103.672 327.235 103.672C327.494 103.672 327.717 103.618 327.902 103.51C328.088 103.402 328.237 103.253 328.349 103.063C328.462 102.869 328.544 102.644 328.596 102.389C328.652 102.134 328.68 101.86 328.68 101.566V101.43C328.68 101.145 328.652 100.877 328.596 100.627C328.544 100.372 328.459 100.148 328.343 99.9532C328.231 99.7545 328.082 99.5991 327.896 99.4868C327.71 99.3745 327.486 99.3183 327.222 99.3183C326.959 99.3183 326.734 99.3745 326.548 99.4868C326.367 99.5991 326.218 99.7545 326.101 99.9532C325.989 100.148 325.907 100.372 325.855 100.627C325.803 100.877 325.777 101.145 325.777 101.43Z" fill="#EE526E" fill-opacity="0.8"/>
<path d="M303.523 135.08C303.481 134.773 303.405 134.498 303.295 134.256C303.186 134.009 303.038 133.801 302.852 133.631C302.667 133.456 302.441 133.324 302.176 133.233C301.911 133.142 301.602 133.097 301.25 133.097C300.625 133.097 300.032 133.254 299.472 133.568C298.911 133.883 298.432 134.345 298.034 134.955C297.636 135.561 297.366 136.299 297.222 137.17C297.078 138.049 297.085 138.794 297.244 139.403C297.403 140.013 297.695 140.477 298.119 140.795C298.547 141.11 299.085 141.267 299.733 141.267C300.328 141.267 300.867 141.153 301.352 140.926C301.837 140.699 302.239 140.377 302.557 139.96C302.879 139.54 303.083 139.047 303.17 138.483L303.636 138.557H300.472L300.756 136.909H305.477L305.239 138.307C305.076 139.307 304.722 140.17 304.176 140.898C303.634 141.621 302.958 142.18 302.148 142.574C301.341 142.964 300.456 143.159 299.494 143.159C298.426 143.159 297.527 142.919 296.795 142.438C296.068 141.953 295.553 141.265 295.25 140.375C294.947 139.481 294.898 138.42 295.102 137.193C295.254 136.254 295.523 135.415 295.909 134.676C296.299 133.938 296.777 133.311 297.341 132.795C297.909 132.277 298.54 131.883 299.233 131.614C299.926 131.341 300.653 131.205 301.415 131.205C302.055 131.205 302.638 131.299 303.165 131.489C303.691 131.674 304.142 131.939 304.517 132.284C304.896 132.629 305.186 133.038 305.386 133.511C305.587 133.985 305.682 134.508 305.67 135.08H303.523ZM310.249 143.17C309.374 143.17 308.65 142.989 308.078 142.625C307.506 142.258 307.105 141.739 306.874 141.068C306.646 140.394 306.608 139.6 306.76 138.688C306.908 137.79 307.209 137.002 307.663 136.324C308.118 135.642 308.686 135.112 309.368 134.733C310.054 134.35 310.811 134.159 311.641 134.159C312.179 134.159 312.673 134.246 313.124 134.42C313.574 134.591 313.955 134.856 314.266 135.216C314.576 135.576 314.79 136.034 314.908 136.591C315.025 137.144 315.019 137.803 314.891 138.568L314.794 139.199H307.635L307.857 137.812H313.038C313.107 137.419 313.084 137.068 312.97 136.761C312.857 136.451 312.667 136.206 312.402 136.028C312.137 135.85 311.805 135.761 311.408 135.761C311.002 135.761 310.624 135.866 310.271 136.074C309.923 136.278 309.629 136.544 309.391 136.869C309.152 137.195 309 137.538 308.936 137.898L308.703 139.227C308.62 139.773 308.639 140.218 308.76 140.562C308.881 140.907 309.093 141.161 309.396 141.324C309.699 141.487 310.082 141.568 310.544 141.568C310.847 141.568 311.127 141.527 311.385 141.443C311.643 141.36 311.872 141.235 312.072 141.068C312.277 140.898 312.447 140.689 312.584 140.443L314.464 140.659C314.256 141.167 313.951 141.61 313.55 141.989C313.148 142.364 312.667 142.655 312.107 142.864C311.55 143.068 310.93 143.17 310.249 143.17ZM318.817 137.886L317.976 143H315.913L317.368 134.273H319.339L319.089 135.756H319.197C319.47 135.267 319.853 134.879 320.345 134.591C320.838 134.303 321.411 134.159 322.067 134.159C322.661 134.159 323.161 134.288 323.567 134.545C323.972 134.799 324.26 135.172 324.43 135.665C324.601 136.153 324.627 136.746 324.51 137.443L323.578 143H321.521L322.391 137.761C322.489 137.182 322.415 136.727 322.169 136.398C321.927 136.064 321.536 135.898 320.999 135.898C320.639 135.898 320.307 135.977 320.004 136.136C319.701 136.292 319.446 136.517 319.237 136.812C319.033 137.108 318.893 137.466 318.817 137.886ZM329.499 143.17C328.624 143.17 327.9 142.989 327.328 142.625C326.756 142.258 326.355 141.739 326.124 141.068C325.896 140.394 325.858 139.6 326.01 138.688C326.158 137.79 326.459 137.002 326.913 136.324C327.368 135.642 327.936 135.112 328.618 134.733C329.304 134.35 330.061 134.159 330.891 134.159C331.429 134.159 331.923 134.246 332.374 134.42C332.824 134.591 333.205 134.856 333.516 135.216C333.826 135.576 334.04 136.034 334.158 136.591C334.275 137.144 334.269 137.803 334.141 138.568L334.044 139.199H326.885L327.107 137.812H332.288C332.357 137.419 332.334 137.068 332.22 136.761C332.107 136.451 331.917 136.206 331.652 136.028C331.387 135.85 331.055 135.761 330.658 135.761C330.252 135.761 329.874 135.866 329.521 136.074C329.173 136.278 328.879 136.544 328.641 136.869C328.402 137.195 328.25 137.538 328.186 137.898L327.953 139.227C327.87 139.773 327.889 140.218 328.01 140.562C328.131 140.907 328.343 141.161 328.646 141.324C328.949 141.487 329.332 141.568 329.794 141.568C330.097 141.568 330.377 141.527 330.635 141.443C330.893 141.36 331.122 141.235 331.322 141.068C331.527 140.898 331.697 140.689 331.834 140.443L333.714 140.659C333.506 141.167 333.201 141.61 332.8 141.989C332.398 142.364 331.917 142.655 331.357 142.864C330.8 143.068 330.18 143.17 329.499 143.17ZM335.158 143L336.612 134.273H338.607L338.362 135.727H338.453C338.692 135.223 339.029 134.835 339.464 134.562C339.904 134.286 340.374 134.148 340.874 134.148C340.991 134.148 341.118 134.153 341.254 134.165C341.391 134.172 341.508 134.186 341.607 134.205L341.288 136.097C341.201 136.066 341.065 136.04 340.879 136.017C340.697 135.991 340.518 135.977 340.339 135.977C339.964 135.977 339.616 136.059 339.294 136.222C338.976 136.381 338.707 136.602 338.487 136.886C338.268 137.17 338.125 137.498 338.061 137.869L337.214 143H335.158ZM343.849 143.176C343.296 143.176 342.815 143.078 342.406 142.881C341.997 142.68 341.696 142.384 341.503 141.994C341.313 141.604 341.266 141.123 341.361 140.551C341.444 140.059 341.603 139.652 341.838 139.33C342.077 139.008 342.368 138.75 342.713 138.557C343.062 138.36 343.44 138.212 343.849 138.114C344.262 138.015 344.683 137.943 345.111 137.898C345.634 137.845 346.056 137.795 346.378 137.75C346.704 137.705 346.948 137.636 347.111 137.545C347.274 137.451 347.372 137.307 347.406 137.114V137.08C347.474 136.652 347.406 136.32 347.202 136.085C346.997 135.85 346.656 135.733 346.179 135.733C345.679 135.733 345.259 135.843 344.918 136.062C344.577 136.282 344.329 136.542 344.173 136.841L342.31 136.568C342.545 136.038 342.866 135.595 343.276 135.239C343.685 134.879 344.156 134.61 344.69 134.432C345.228 134.25 345.802 134.159 346.412 134.159C346.829 134.159 347.236 134.208 347.634 134.307C348.035 134.405 348.389 134.568 348.696 134.795C349.007 135.019 349.234 135.324 349.378 135.71C349.526 136.097 349.55 136.58 349.452 137.159L348.48 143H346.503L346.707 141.801H346.639C346.476 142.044 346.264 142.271 346.003 142.483C345.741 142.691 345.431 142.86 345.071 142.989C344.711 143.114 344.304 143.176 343.849 143.176ZM344.628 141.665C345.041 141.665 345.412 141.583 345.741 141.42C346.071 141.254 346.342 141.034 346.554 140.761C346.766 140.489 346.899 140.191 346.952 139.869L347.122 138.841C347.046 138.894 346.929 138.943 346.77 138.989C346.611 139.034 346.433 139.074 346.236 139.108C346.043 139.142 345.851 139.172 345.662 139.199C345.473 139.225 345.31 139.248 345.173 139.267C344.859 139.309 344.571 139.377 344.31 139.472C344.052 139.566 343.838 139.699 343.668 139.869C343.501 140.036 343.397 140.252 343.355 140.517C343.295 140.892 343.384 141.178 343.622 141.375C343.861 141.568 344.196 141.665 344.628 141.665ZM356.361 134.273L356.094 135.864H351.082L351.344 134.273H356.361ZM352.923 132.182H354.98L353.616 140.375C353.575 140.652 353.582 140.864 353.639 141.011C353.7 141.155 353.796 141.254 353.929 141.307C354.065 141.36 354.219 141.386 354.389 141.386C354.514 141.386 354.632 141.377 354.741 141.358C354.851 141.335 354.938 141.318 355.003 141.307L355.094 142.915C354.969 142.953 354.8 142.994 354.588 143.04C354.38 143.085 354.13 143.112 353.838 143.119C353.315 143.131 352.861 143.051 352.474 142.881C352.092 142.706 351.812 142.439 351.634 142.08C351.459 141.716 351.42 141.261 351.514 140.716L352.923 132.182ZM356.626 143L358.081 134.273H360.138L358.683 143H356.626ZM359.411 133.023C359.081 133.023 358.808 132.913 358.592 132.693C358.376 132.473 358.282 132.21 358.308 131.903C358.335 131.597 358.473 131.333 358.723 131.114C358.977 130.894 359.267 130.784 359.592 130.784C359.922 130.784 360.193 130.894 360.405 131.114C360.621 131.333 360.715 131.597 360.689 131.903C360.666 132.21 360.528 132.473 360.274 132.693C360.024 132.913 359.736 133.023 359.411 133.023ZM363.707 137.886L362.866 143H360.804L362.259 134.273H364.23L363.98 135.756H364.088C364.361 135.267 364.743 134.879 365.236 134.591C365.728 134.303 366.302 134.159 366.957 134.159C367.552 134.159 368.052 134.288 368.457 134.545C368.863 134.799 369.151 135.172 369.321 135.665C369.491 136.153 369.518 136.746 369.401 137.443L368.469 143H366.412L367.281 137.761C367.38 137.182 367.306 136.727 367.06 136.398C366.817 136.064 366.427 135.898 365.889 135.898C365.529 135.898 365.198 135.977 364.895 136.136C364.592 136.292 364.336 136.517 364.128 136.812C363.923 137.108 363.783 137.466 363.707 137.886ZM373.798 146.455C373.056 146.455 372.437 146.354 371.94 146.153C371.444 145.956 371.062 145.691 370.793 145.358C370.524 145.025 370.357 144.655 370.293 144.25L372.224 143.801C372.281 143.972 372.372 144.14 372.497 144.307C372.626 144.477 372.815 144.617 373.065 144.727C373.315 144.841 373.649 144.898 374.065 144.898C374.649 144.898 375.158 144.756 375.594 144.472C376.029 144.188 376.298 143.725 376.401 143.085L376.662 141.432H376.56C376.423 141.644 376.236 141.862 375.997 142.085C375.762 142.309 375.465 142.496 375.105 142.648C374.749 142.799 374.321 142.875 373.821 142.875C373.151 142.875 372.569 142.718 372.077 142.403C371.584 142.085 371.23 141.612 371.014 140.983C370.802 140.35 370.776 139.559 370.935 138.608C371.09 137.65 371.382 136.841 371.81 136.182C372.241 135.519 372.759 135.017 373.361 134.676C373.963 134.331 374.599 134.159 375.27 134.159C375.781 134.159 376.188 134.246 376.491 134.42C376.795 134.591 377.024 134.797 377.179 135.04C377.334 135.278 377.448 135.504 377.52 135.716H377.628L377.866 134.273H379.895L378.429 143.142C378.308 143.888 378.029 144.506 377.594 144.994C377.158 145.487 376.611 145.852 375.952 146.091C375.296 146.333 374.579 146.455 373.798 146.455ZM374.639 141.261C375.075 141.261 375.465 141.155 375.81 140.943C376.154 140.731 376.442 140.426 376.673 140.028C376.904 139.631 377.065 139.153 377.156 138.597C377.247 138.047 377.243 137.566 377.145 137.153C377.05 136.741 376.866 136.42 376.594 136.193C376.321 135.962 375.965 135.847 375.526 135.847C375.067 135.847 374.666 135.966 374.321 136.205C373.98 136.443 373.7 136.771 373.48 137.188C373.264 137.6 373.113 138.07 373.026 138.597C372.942 139.131 372.942 139.598 373.026 140C373.113 140.398 373.289 140.708 373.554 140.932C373.823 141.152 374.185 141.261 374.639 141.261ZM384.392 143L384.619 141.688L392 133.131H385.994L386.29 131.364H394.903L394.693 132.676L387.295 141.233H393.301L393.006 143H384.392ZM395.045 143L396.977 131.364H399.085L398.205 136.71H398.347L403.767 131.364H406.341L400.983 136.585L404.449 143H401.915L399.29 138.011L397.733 139.545L397.153 143H395.045ZM409.842 143L411.774 131.364H416.138C417.032 131.364 417.755 131.53 418.308 131.864C418.861 132.193 419.246 132.65 419.462 133.233C419.678 133.812 419.723 134.473 419.598 135.216C419.477 135.962 419.21 136.625 418.797 137.205C418.388 137.784 417.848 138.241 417.178 138.574C416.507 138.903 415.723 139.068 414.825 139.068H411.933L412.223 137.335H414.831C415.354 137.335 415.797 137.244 416.161 137.062C416.528 136.881 416.818 136.631 417.03 136.312C417.242 135.994 417.382 135.629 417.45 135.216C417.515 134.803 417.494 134.439 417.388 134.125C417.282 133.811 417.075 133.566 416.768 133.392C416.465 133.214 416.051 133.125 415.524 133.125H413.592L411.95 143H409.842ZM420.033 143L421.487 134.273H423.482L423.237 135.727H423.328C423.567 135.223 423.904 134.835 424.339 134.562C424.779 134.286 425.249 134.148 425.749 134.148C425.866 134.148 425.993 134.153 426.129 134.165C426.266 134.172 426.383 134.186 426.482 134.205L426.163 136.097C426.076 136.066 425.94 136.04 425.754 136.017C425.572 135.991 425.393 135.977 425.214 135.977C424.839 135.977 424.491 136.059 424.169 136.222C423.851 136.381 423.582 136.602 423.362 136.886C423.143 137.17 423 137.498 422.936 137.869L422.089 143H420.033ZM429.862 143.17C429.002 143.17 428.286 142.981 427.714 142.602C427.146 142.223 426.747 141.691 426.516 141.006C426.285 140.32 426.243 139.525 426.391 138.619C426.538 137.725 426.834 136.943 427.277 136.273C427.724 135.602 428.286 135.083 428.964 134.716C429.646 134.345 430.41 134.159 431.254 134.159C432.114 134.159 432.828 134.35 433.396 134.733C433.964 135.112 434.364 135.644 434.595 136.33C434.83 137.015 434.874 137.814 434.726 138.727C434.582 139.617 434.285 140.396 433.834 141.062C433.387 141.729 432.824 142.248 432.146 142.619C431.468 142.987 430.707 143.17 429.862 143.17ZM430.033 141.523C430.51 141.523 430.929 141.394 431.288 141.136C431.652 140.875 431.949 140.525 432.18 140.085C432.415 139.642 432.578 139.15 432.669 138.608C432.752 138.085 432.754 137.612 432.675 137.188C432.595 136.759 432.425 136.42 432.163 136.17C431.906 135.917 431.548 135.79 431.089 135.79C430.612 135.79 430.19 135.922 429.822 136.188C429.459 136.449 429.161 136.801 428.93 137.244C428.699 137.684 428.54 138.174 428.453 138.716C428.366 139.239 428.362 139.712 428.442 140.136C428.521 140.561 428.692 140.898 428.953 141.148C429.214 141.398 429.574 141.523 430.033 141.523ZM439.597 143.17C438.737 143.17 438.021 142.981 437.449 142.602C436.881 142.223 436.481 141.691 436.25 141.006C436.019 140.32 435.977 139.525 436.125 138.619C436.273 137.725 436.568 136.943 437.011 136.273C437.458 135.602 438.021 135.083 438.699 134.716C439.381 134.345 440.144 134.159 440.989 134.159C441.848 134.159 442.563 134.35 443.131 134.733C443.699 135.112 444.098 135.644 444.33 136.33C444.564 137.015 444.608 137.814 444.46 138.727C444.316 139.617 444.019 140.396 443.568 141.062C443.121 141.729 442.559 142.248 441.881 142.619C441.203 142.987 440.441 143.17 439.597 143.17ZM439.767 141.523C440.244 141.523 440.663 141.394 441.023 141.136C441.386 140.875 441.684 140.525 441.915 140.085C442.15 139.642 442.313 139.15 442.403 138.608C442.487 138.085 442.489 137.612 442.409 137.188C442.33 136.759 442.159 136.42 441.898 136.17C441.64 135.917 441.282 135.79 440.824 135.79C440.347 135.79 439.924 135.922 439.557 136.188C439.193 136.449 438.896 136.801 438.665 137.244C438.434 137.684 438.275 138.174 438.188 138.716C438.1 139.239 438.097 139.712 438.176 140.136C438.256 140.561 438.426 140.898 438.688 141.148C438.949 141.398 439.309 141.523 439.767 141.523ZM451.382 134.273L451.115 135.864H445.956L446.223 134.273H451.382ZM446.053 143L447.649 133.449C447.74 132.862 447.939 132.373 448.246 131.983C448.556 131.593 448.933 131.301 449.376 131.108C449.823 130.915 450.299 130.818 450.803 130.818C451.162 130.818 451.475 130.847 451.74 130.903C452.005 130.96 452.198 131.011 452.32 131.057L451.655 132.648C451.568 132.621 451.462 132.595 451.337 132.568C451.215 132.538 451.073 132.523 450.911 132.523C450.528 132.523 450.242 132.616 450.053 132.801C449.863 132.983 449.738 133.244 449.678 133.585L448.115 143H446.053ZM452.028 143.125C451.68 143.125 451.392 143.004 451.165 142.761C450.938 142.519 450.831 142.223 450.847 141.875C450.862 141.534 451 141.244 451.261 141.006C451.523 140.767 451.824 140.648 452.165 140.648C452.502 140.648 452.788 140.769 453.023 141.011C453.261 141.254 453.369 141.542 453.347 141.875C453.331 142.11 453.259 142.322 453.131 142.511C453.006 142.701 452.847 142.85 452.653 142.96C452.46 143.07 452.252 143.125 452.028 143.125ZM456.669 143.125C456.321 143.125 456.033 143.004 455.805 142.761C455.578 142.519 455.472 142.223 455.487 141.875C455.502 141.534 455.641 141.244 455.902 141.006C456.163 140.767 456.464 140.648 456.805 140.648C457.143 140.648 457.429 140.769 457.663 141.011C457.902 141.254 458.01 141.542 457.987 141.875C457.972 142.11 457.9 142.322 457.771 142.511C457.646 142.701 457.487 142.85 457.294 142.96C457.101 143.07 456.893 143.125 456.669 143.125ZM461.31 143.125C460.961 143.125 460.673 143.004 460.446 142.761C460.219 142.519 460.113 142.223 460.128 141.875C460.143 141.534 460.281 141.244 460.543 141.006C460.804 140.767 461.105 140.648 461.446 140.648C461.783 140.648 462.069 140.769 462.304 141.011C462.543 141.254 462.651 141.542 462.628 141.875C462.613 142.11 462.541 142.322 462.412 142.511C462.287 142.701 462.128 142.85 461.935 142.96C461.741 143.07 461.533 143.125 461.31 143.125Z" fill="#343D65"/>
<path d="M366.241 159.375L358.046 184.595L379.5 200.182L400.954 184.595L392.759 159.375H366.241Z" stroke="#2A3557" stroke-width="3.75" stroke-miterlimit="10"/>
<path d="M549.354 163.854C549.549 163.658 549.549 163.342 549.354 163.146L546.172 159.964C545.976 159.769 545.66 159.769 545.464 159.964C545.269 160.16 545.269 160.476 545.464 160.672L548.293 163.5L545.464 166.328C545.269 166.524 545.269 166.84 545.464 167.036C545.66 167.231 545.976 167.231 546.172 167.036L549.354 163.854ZM549 163L509 163L509 164L549 164L549 163Z" fill="#2A3557"/>
<rect x="559.5" y="105" width="179" height="117" rx="3.2988" fill="#F4D4DA" fill-opacity="0.4"/>
<rect x="623" y="125.291" width="52" height="7" fill="#1C2847" fill-opacity="0.4"/>
<rect x="629" y="136.85" width="40" height="3.35326" fill="#1C2847" fill-opacity="0.4"/>
<rect x="633" y="141.203" width="32" height="3.35326" fill="#1C2847" fill-opacity="0.4"/>
<rect x="627" y="148.556" width="18" height="2" fill="#1C2847" fill-opacity="0.4"/>
<rect x="627" y="151.556" width="44" height="4" fill="#1C2847" fill-opacity="0.4"/>
<rect x="610.415" y="163.736" width="77.1712" height="33.9945" rx="3.40892" fill="#F7E9AB"/>
<path d="M624.686 176.12C625.389 176.116 626.18 176.27 627.059 176.583L626.69 177.989C625.874 177.7 625.209 177.555 624.698 177.555C624.284 177.555 623.958 177.637 623.719 177.802C623.481 177.966 623.362 178.188 623.362 178.469C623.362 178.774 623.471 179.016 623.69 179.196C623.913 179.376 624.317 179.542 624.903 179.694C625.766 179.917 626.379 180.225 626.743 180.62C627.106 181.01 627.288 181.55 627.288 182.237C627.288 183.069 627.006 183.708 626.444 184.153C625.885 184.594 625.086 184.815 624.047 184.815C623.2 184.815 622.292 184.624 621.323 184.241L621.756 182.876C622.292 183.067 622.729 183.202 623.069 183.28C623.409 183.354 623.731 183.391 624.036 183.391C624.477 183.391 624.817 183.298 625.055 183.11C625.297 182.919 625.418 182.655 625.418 182.319C625.418 182.104 625.368 181.925 625.266 181.78C625.165 181.635 624.993 181.507 624.75 181.393C624.508 181.276 624.159 181.161 623.702 181.048C622.94 180.864 622.383 180.579 622.032 180.192C621.68 179.805 621.504 179.296 621.504 178.663C621.504 177.854 621.782 177.229 622.336 176.788C622.895 176.343 623.678 176.12 624.686 176.12ZM630.2 182.524C630.2 182.884 630.272 183.145 630.417 183.309C630.561 183.473 630.793 183.555 631.114 183.555C631.395 183.555 631.661 183.493 631.911 183.368C632.165 183.239 632.366 183.061 632.514 182.835V178.446H634.319V184.733H632.831L632.625 183.854C632.36 184.175 632.047 184.417 631.688 184.581C631.329 184.745 630.932 184.827 630.499 184.827C629.819 184.827 629.299 184.637 628.94 184.259C628.581 183.88 628.401 183.335 628.401 182.624V178.446H630.2V182.524ZM637.881 179.044C638.346 178.579 638.911 178.346 639.575 178.346C640.446 178.346 641.124 178.62 641.608 179.167C642.092 179.71 642.334 180.473 642.334 181.458C642.334 182.497 642.03 183.317 641.42 183.919C640.811 184.516 639.975 184.815 638.913 184.815C638.37 184.815 637.84 184.78 637.325 184.71C636.813 184.635 636.399 184.54 636.083 184.423V175.71H637.881V179.044ZM639.2 179.624C638.872 179.624 638.588 179.716 638.35 179.899C638.116 180.083 637.959 180.327 637.881 180.632V183.438C638.147 183.544 638.463 183.594 638.831 183.591C639.374 183.591 639.788 183.415 640.073 183.063C640.362 182.712 640.506 182.196 640.506 181.516C640.506 180.891 640.395 180.421 640.172 180.104C639.95 179.784 639.625 179.624 639.2 179.624ZM645.774 178.323C646.368 178.323 647.061 178.46 647.854 178.733L647.479 179.911C647.065 179.774 646.735 179.68 646.489 179.63C646.247 179.575 646.03 179.548 645.838 179.548C645.542 179.548 645.307 179.604 645.135 179.718C644.963 179.831 644.877 179.983 644.877 180.175C644.877 180.358 644.959 180.503 645.124 180.608C645.288 180.71 645.534 180.809 645.862 180.907C646.319 181.036 646.68 181.157 646.946 181.27C647.215 181.38 647.454 181.565 647.661 181.827C647.868 182.085 647.971 182.438 647.971 182.887C647.971 183.505 647.741 183.987 647.28 184.335C646.823 184.678 646.194 184.85 645.393 184.85C644.553 184.85 643.749 184.682 642.979 184.346L643.413 183.163C643.87 183.331 644.239 183.45 644.52 183.52C644.805 183.587 645.059 183.62 645.282 183.62C645.594 183.62 645.831 183.561 645.991 183.444C646.151 183.327 646.231 183.161 646.231 182.946C646.231 182.731 646.139 182.573 645.956 182.471C645.772 182.37 645.475 182.26 645.065 182.143C644.682 182.03 644.362 181.915 644.104 181.798C643.85 181.677 643.631 181.487 643.448 181.229C643.264 180.971 643.172 180.632 643.172 180.21C643.172 179.616 643.401 179.153 643.858 178.821C644.319 178.489 644.958 178.323 645.774 178.323ZM651.967 178.346C652.608 178.346 653.215 178.495 653.79 178.792L653.391 179.981C652.965 179.759 652.553 179.647 652.155 179.647C651.635 179.647 651.233 179.815 650.948 180.151C650.667 180.487 650.526 180.962 650.526 181.575C650.526 182.184 650.67 182.655 650.959 182.987C651.252 183.319 651.672 183.485 652.219 183.485C652.668 183.485 653.108 183.389 653.538 183.198L653.825 184.423C653.536 184.552 653.223 184.651 652.887 184.721C652.551 184.792 652.231 184.827 651.926 184.827C650.887 184.827 650.092 184.548 649.542 183.989C648.991 183.43 648.715 182.626 648.715 181.575C648.715 180.552 648.999 179.759 649.565 179.196C650.131 178.63 650.932 178.346 651.967 178.346ZM656.543 179.319C656.938 178.671 657.491 178.346 658.202 178.346C658.354 178.346 658.483 178.356 658.588 178.376C658.698 178.391 658.836 178.423 659.004 178.469L658.799 180.04C658.463 179.919 658.167 179.86 657.909 179.864C657.627 179.864 657.389 179.915 657.194 180.016C656.999 180.114 656.834 180.27 656.702 180.485V184.733H654.897V178.446H656.327L656.543 179.319ZM659.907 175.915H661.706V177.555H659.907V175.915ZM659.907 178.516H661.706V184.733H659.907V178.516ZM665.268 179.044C665.733 178.579 666.297 178.346 666.961 178.346C667.833 178.346 668.51 178.62 668.995 179.167C669.479 179.71 669.721 180.473 669.721 181.458C669.721 182.497 669.417 183.317 668.807 183.919C668.198 184.516 667.362 184.815 666.299 184.815C665.756 184.815 665.227 184.78 664.711 184.71C664.2 184.635 663.786 184.54 663.469 184.423V175.71H665.268V179.044ZM666.586 179.624C666.258 179.624 665.975 179.716 665.737 179.899C665.502 180.083 665.346 180.327 665.268 180.632V183.438C665.534 183.544 665.85 183.594 666.217 183.591C666.76 183.591 667.174 183.415 667.459 183.063C667.749 182.712 667.893 182.196 667.893 181.516C667.893 180.891 667.782 180.421 667.559 180.104C667.336 179.784 667.012 179.624 666.586 179.624ZM672.229 181.927C672.323 182.997 672.874 183.532 673.881 183.532C674.194 183.532 674.508 183.497 674.825 183.427C675.141 183.352 675.491 183.235 675.874 183.075L676.307 184.194C675.354 184.635 674.473 184.854 673.665 184.85C672.672 184.85 671.893 184.561 671.327 183.983C670.76 183.405 670.477 182.602 670.477 181.575C670.477 180.552 670.754 179.755 671.309 179.184C671.864 178.61 672.641 178.323 673.641 178.323C675.52 178.323 676.459 179.387 676.459 181.516V181.927H672.229ZM674.807 180.884C674.756 180.009 674.372 179.571 673.653 179.571C673.254 179.571 672.94 179.68 672.709 179.899C672.483 180.114 672.334 180.442 672.264 180.884H674.807Z" fill="#1C2847"/>
<rect x="610.415" y="163.736" width="77.1712" height="33.9945" rx="3.40892" stroke="#1C2847" stroke-width="0.358834"/>
<rect x="559.5" y="105" width="179" height="117" rx="3.2988" stroke="#3F4973"/>
<path d="M524.58 172.125L521.849 180.532L529 185.727L536.151 180.532L533.42 172.125H524.58Z" stroke="#2A3557" stroke-width="1.25" stroke-miterlimit="10"/>
<path d="M642.531 27.2858L638.692 39.0981L648.741 46.3985L658.789 39.0981L654.951 27.2858H642.531Z" stroke="#2A3557" stroke-width="1.75637" stroke-miterlimit="10"/>
<rect x="648.741" y="24" width="12.7592" height="12.7592" rx="6.3796" fill="#F7E9AB"/>
<path d="M658.222 28.4059L654.274 32.3535L652.301 30.3798" stroke="#2A3557" stroke-width="1.06327" stroke-linecap="round" stroke-linejoin="round"/>
<path d="M630.053 54.0048L632.703 62.019H632.807L635.452 54.0048H637.481L633.891 64.1866H631.614L628.03 54.0048H630.053ZM641.302 64.3358C640.537 64.3358 639.876 64.1767 639.319 63.8585C638.765 63.537 638.339 63.083 638.041 62.4963C637.743 61.9063 637.594 61.212 637.594 60.4132C637.594 59.6277 637.743 58.9383 638.041 58.345C638.343 57.7484 638.764 57.2844 639.304 56.953C639.844 56.6182 640.479 56.4509 641.208 56.4509C641.679 56.4509 642.123 56.5271 642.54 56.6795C642.961 56.8287 643.333 57.0607 643.654 57.3756C643.979 57.6904 644.234 58.0915 644.42 58.5787C644.605 59.0626 644.698 59.6393 644.698 60.3088V60.8607H638.439V59.6476H642.973C642.97 59.3029 642.895 58.9963 642.749 58.7278C642.603 58.4561 642.4 58.2423 642.138 58.0865C641.879 57.9307 641.578 57.8528 641.233 57.8528C640.865 57.8528 640.542 57.9423 640.263 58.1213C639.985 58.297 639.768 58.529 639.612 58.8173C639.46 59.1024 639.382 59.4156 639.378 59.757V60.8159C639.378 61.26 639.46 61.6412 639.622 61.9594C639.784 62.2742 640.012 62.5162 640.303 62.6852C640.595 62.8509 640.936 62.9338 641.327 62.9338C641.589 62.9338 641.826 62.8973 642.038 62.8244C642.25 62.7482 642.434 62.6372 642.59 62.4913C642.746 62.3455 642.864 62.1649 642.943 61.9494L644.623 62.1383C644.517 62.5825 644.315 62.9703 644.017 63.3017C643.722 63.6298 643.344 63.885 642.883 64.0673C642.423 64.2463 641.896 64.3358 641.302 64.3358ZM646.221 64.1866V56.5503H647.966V57.823H648.045C648.184 57.3822 648.423 57.0425 648.761 56.8038C649.102 56.5619 649.492 56.4409 649.929 56.4409C650.029 56.4409 650.14 56.4459 650.263 56.4558C650.388 56.4625 650.493 56.4741 650.576 56.4906V58.1462C650.499 58.1196 650.379 58.0964 650.213 58.0766C650.05 58.0534 649.893 58.0418 649.741 58.0418C649.412 58.0418 649.117 58.113 648.856 58.2555C648.597 58.3947 648.393 58.5886 648.244 58.8372C648.095 59.0858 648.02 59.3725 648.02 59.6973V64.1866H646.221ZM651.771 64.1866V56.5503H653.571V64.1866H651.771ZM652.676 55.4665C652.391 55.4665 652.146 55.372 651.94 55.1831C651.735 54.9909 651.632 54.7605 651.632 54.492C651.632 54.2203 651.735 53.9899 651.94 53.801C652.146 53.6088 652.391 53.5126 652.676 53.5126C652.965 53.5126 653.21 53.6088 653.412 53.801C653.618 53.9899 653.72 54.2203 653.72 54.492C653.72 54.7605 653.618 54.9909 653.412 55.1831C653.21 55.372 652.965 55.4665 652.676 55.4665ZM659.29 56.5503V57.9423H654.775V56.5503H659.29ZM655.904 64.1866V55.8294C655.904 55.3157 656.01 54.8881 656.222 54.5467C656.438 54.2053 656.726 53.9501 657.087 53.7811C657.449 53.6121 657.85 53.5276 658.29 53.5276C658.602 53.5276 658.879 53.5524 659.121 53.6021C659.363 53.6518 659.542 53.6966 659.658 53.7364L659.3 55.1284C659.223 55.1052 659.127 55.082 659.011 55.0588C658.895 55.0323 658.766 55.019 658.623 55.019C658.289 55.019 658.052 55.1002 657.913 55.2626C657.777 55.4217 657.709 55.6504 657.709 55.9487V64.1866H655.904ZM661.818 67.0503C661.572 67.0503 661.345 67.0304 661.137 66.9906C660.931 66.9542 660.767 66.9111 660.644 66.8614L661.062 65.4594C661.324 65.5356 661.558 65.5721 661.763 65.5687C661.969 65.5654 662.149 65.5008 662.305 65.3749C662.464 65.2522 662.598 65.0467 662.708 64.7584L662.862 64.3457L660.093 56.5503H662.002L663.762 62.3173H663.841L665.606 56.5503H667.52L664.463 65.1114C664.32 65.5157 664.131 65.8621 663.896 66.1504C663.661 66.4421 663.372 66.6642 663.031 66.8166C662.693 66.9724 662.288 67.0503 661.818 67.0503ZM620.996 80.1866V79.0382L626.216 71.551H620.966V70.0048H628.503V71.1533L623.288 78.6405H628.533V80.1866H620.996ZM630.318 80.1866V70.0048H632.162V74.6831H632.286L636.259 70.0048H638.511L634.573 74.5737L638.546 80.1866H636.328L633.291 75.8216L632.162 77.154V80.1866H630.318ZM643.265 80.1866V70.0048H647.083C647.865 70.0048 648.522 70.1507 649.052 70.4423C649.586 70.734 649.988 71.135 650.26 71.6455C650.535 72.1526 650.673 72.7293 650.673 73.3756C650.673 74.0285 650.535 74.6085 650.26 75.1156C649.985 75.6227 649.579 76.0221 649.042 76.3138C648.505 76.6021 647.844 76.7463 647.058 76.7463H644.528V75.23H646.81C647.267 75.23 647.642 75.1504 647.933 74.9913C648.225 74.8322 648.44 74.6135 648.58 74.3351C648.722 74.0567 648.793 73.7368 648.793 73.3756C648.793 73.0143 648.722 72.6961 648.58 72.421C648.44 72.1459 648.223 71.9321 647.928 71.7797C647.637 71.6239 647.261 71.546 646.8 71.546H645.109V80.1866H643.265ZM652.195 80.1866V72.5503H653.94V73.823H654.02C654.159 73.3822 654.398 73.0425 654.736 72.8038C655.077 72.5619 655.467 72.4409 655.904 72.4409C656.003 72.4409 656.114 72.4459 656.237 72.4558C656.363 72.4625 656.467 72.4741 656.55 72.4906V74.1462C656.474 74.1196 656.353 74.0964 656.187 74.0766C656.025 74.0534 655.868 74.0418 655.715 74.0418C655.387 74.0418 655.092 74.113 654.83 74.2555C654.572 74.3947 654.368 74.5886 654.219 74.8372C654.07 75.0858 653.995 75.3725 653.995 75.6973V80.1866H652.195ZM660.763 80.3358C660.017 80.3358 659.37 80.1717 658.824 79.8436C658.277 79.5155 657.852 79.0564 657.551 78.4665C657.253 77.8765 657.103 77.1871 657.103 76.3983C657.103 75.6095 657.253 74.9184 657.551 74.3251C657.852 73.7319 658.277 73.2712 658.824 72.943C659.37 72.6149 660.017 72.4509 660.763 72.4509C661.508 72.4509 662.155 72.6149 662.701 72.943C663.248 73.2712 663.671 73.7319 663.969 74.3251C664.271 74.9184 664.422 75.6095 664.422 76.3983C664.422 77.1871 664.271 77.8765 663.969 78.4665C663.671 79.0564 663.248 79.5155 662.701 79.8436C662.155 80.1717 661.508 80.3358 660.763 80.3358ZM660.772 78.894C661.177 78.894 661.515 78.783 661.787 78.5609C662.058 78.3356 662.261 78.0339 662.393 77.6561C662.529 77.2783 662.597 76.8573 662.597 76.3933C662.597 75.926 662.529 75.5034 662.393 75.1256C662.261 74.7444 662.058 74.4411 661.787 74.2158C661.515 73.9904 661.177 73.8777 660.772 73.8777C660.358 73.8777 660.013 73.9904 659.738 74.2158C659.467 74.4411 659.263 74.7444 659.127 75.1256C658.994 75.5034 658.928 75.926 658.928 76.3933C658.928 76.8573 658.994 77.2783 659.127 77.6561C659.263 78.0339 659.467 78.3356 659.738 78.5609C660.013 78.783 660.358 78.894 660.772 78.894ZM669.28 80.3358C668.534 80.3358 667.888 80.1717 667.341 79.8436C666.794 79.5155 666.37 79.0564 666.068 78.4665C665.77 77.8765 665.621 77.1871 665.621 76.3983C665.621 75.6095 665.77 74.9184 666.068 74.3251C666.37 73.7319 666.794 73.2712 667.341 72.943C667.888 72.6149 668.534 72.4509 669.28 72.4509C670.026 72.4509 670.672 72.6149 671.219 72.943C671.766 73.2712 672.188 73.7319 672.487 74.3251C672.788 74.9184 672.939 75.6095 672.939 76.3983C672.939 77.1871 672.788 77.8765 672.487 78.4665C672.188 79.0564 671.766 79.5155 671.219 79.8436C670.672 80.1717 670.026 80.3358 669.28 80.3358ZM669.29 78.894C669.694 78.894 670.032 78.783 670.304 78.5609C670.576 78.3356 670.778 78.0339 670.911 77.6561C671.047 77.2783 671.115 76.8573 671.115 76.3933C671.115 75.926 671.047 75.5034 670.911 75.1256C670.778 74.7444 670.576 74.4411 670.304 74.2158C670.032 73.9904 669.694 73.8777 669.29 73.8777C668.876 73.8777 668.531 73.9904 668.256 74.2158C667.984 74.4411 667.78 74.7444 667.644 75.1256C667.512 75.5034 667.446 75.926 667.446 76.3933C667.446 76.8573 667.512 77.2783 667.644 77.6561C667.78 78.0339 667.984 78.3356 668.256 78.5609C668.531 78.783 668.876 78.894 669.29 78.894ZM678.335 72.5503V73.9423H673.82V72.5503H678.335ZM674.949 80.1866V71.8294C674.949 71.3157 675.055 70.8881 675.267 70.5467C675.483 70.2053 675.771 69.9501 676.132 69.7811C676.493 69.6121 676.895 69.5276 677.335 69.5276C677.647 69.5276 677.924 69.5524 678.166 69.6021C678.408 69.6518 678.587 69.6966 678.703 69.7364L678.345 71.1284C678.268 71.1052 678.172 71.082 678.056 71.0588C677.94 71.0323 677.811 71.019 677.668 71.019C677.334 71.019 677.097 71.1002 676.957 71.2626C676.822 71.4217 676.754 71.6504 676.754 71.9487V80.1866H674.949Z" fill="#2A3557"/>
<rect x="0.5" y="0.5" width="758" height="306" rx="9.5" stroke="white"/>
</svg>
